<svg width="31" height="21" viewBox="0 0 31 21" fill="none" xmlns="http://www.w3.org/2000/svg">
<path d="M0.884436 13.7303C0.00378918 13.5213 -0.233924 12.899 0.236576 12.0687C0.549421 11.5175 0.760037 10.9166 1.01253 10.336C1.41529 9.40979 1.81435 8.4813 2.21464 7.55395C2.51887 6.84911 2.80831 6.1375 3.13347 5.43944C3.52145 4.6047 3.93283 3.77901 4.34421 2.95444C4.59793 2.44727 4.86397 1.94575 5.13864 1.44762C5.82345 0.201734 7.5909 0.048116 8.4543 1.26012C8.86691 1.8407 9.09108 2.56474 9.25736 3.25264C9.38668 3.78917 9.01595 4.14837 8.5048 4.21501C7.82122 4.30311 7.40492 4.03541 7.22263 3.44918C7.13764 3.17696 6.96152 2.92959 6.75336 2.69238C5.44532 5.51738 4.0794 8.25878 2.96966 11.0917L3.1384 11.2747C3.87371 11.1753 4.60902 11.0759 5.34556 10.9765C5.56726 10.946 5.78773 10.8895 6.00943 10.8884C7.58967 10.8827 9.17114 10.8545 10.7489 10.903C11.6382 10.9302 12.5201 11.1222 13.4093 11.1741C13.748 11.1945 14.0966 10.9832 14.4464 10.9629C15.13 10.9234 15.8197 10.9155 16.5033 10.9516C16.8925 10.972 17.2805 11.1911 17.6611 11.173C19.2475 11.0985 20.8289 10.9415 22.4153 10.868C23.3354 10.8251 24.2641 10.8466 25.1841 10.9053C25.9515 10.9539 26.7102 11.1018 27.4738 11.2001C27.5921 11.2159 27.7152 11.2024 28.0244 11.2024C27.8051 10.615 27.6265 10.092 27.4172 9.58035C27.1191 8.85066 26.8149 8.12098 26.4811 7.40485C26.0796 6.54187 25.6263 5.70036 25.2272 4.83626C24.907 4.14159 24.6348 3.42885 24.269 2.55345C24.0522 2.89231 23.8502 3.09563 23.7849 3.33171C23.5879 4.03993 23.1001 4.36298 22.3734 4.20484C21.8315 4.08624 21.5051 3.38028 21.7453 2.77371C21.9288 2.3106 22.1074 1.8328 22.3895 1.41938C22.7824 0.837668 23.3366 0.423125 24.1594 0.451364C24.9267 0.478473 25.5118 0.786839 25.8345 1.42277C26.4269 2.58733 26.9922 3.76319 27.5526 4.94131C28.2165 6.34081 28.8718 7.74371 29.5135 9.15112C29.9963 10.2095 30.4754 11.2702 30.9102 12.3455C31.1861 13.0266 30.8153 13.5552 29.9298 13.7721C29.9298 14.1799 29.9926 14.6181 29.9187 15.0372C29.6255 16.6965 29.0454 18.2428 27.4135 19.2131C26.7176 19.6277 25.9453 19.8897 25.1078 20.0829C24.2986 20.2704 23.5152 20.3167 22.7097 20.328C20.6405 20.3573 18.9445 19.6356 17.7818 18.0576C17.3593 17.4838 17.177 16.7643 16.858 16.1227C16.3974 15.1965 16.5476 14.216 16.5205 13.2514C16.5119 12.9249 16.3604 12.7962 16.0008 12.7691C14.487 12.6527 14.4476 12.6651 14.4489 14.0556C14.4501 15.5681 14.088 16.9811 13.0879 18.2056C12.3427 19.1171 11.3845 19.7045 10.1577 20.0704C9.05043 20.4003 7.9604 20.4048 6.895 20.2794C5.09676 20.0682 3.37858 19.5463 2.28239 18.0632C1.82174 17.4397 1.39804 16.7959 1.33277 15.986C1.27364 15.2552 1.05194 14.5345 0.885668 13.7292L0.884436 13.7303ZM12.3316 13.1249C11.6936 13.0108 11.0987 12.8334 10.4964 12.8109C8.22768 12.7227 5.96016 12.7092 3.71359 13.1113C3.28374 13.1881 3.04233 13.37 3.10761 13.7924C3.21476 14.486 3.31453 15.1818 3.44262 15.873C3.61259 16.7868 4.274 17.3878 5.09307 17.8204C6.20157 18.4055 7.43694 18.4947 8.69202 18.4168C10.0136 18.3343 11.0728 17.7876 11.6862 16.7247C12.3218 15.6234 12.5016 14.4058 12.3304 13.126L12.3316 13.1249ZM18.6181 13.1373C18.6181 13.5473 18.5811 13.9799 18.6279 14.4058C18.676 14.844 18.7967 15.2778 18.9014 15.7093C19.2856 17.2895 20.5752 18.384 22.3944 18.4134C23.2442 18.427 24.0769 18.419 24.9279 18.1717C25.7445 17.9333 26.3924 17.5821 26.9171 16.9879C27.8076 15.9792 27.9221 14.7876 27.8396 13.5665C27.8285 13.4095 27.5194 13.1813 27.31 13.1384C26.5956 12.9916 25.8689 12.8436 25.141 12.8221C22.9757 12.7566 20.8006 12.6064 18.6168 13.1384L18.6181 13.1373Z" fill="white"/>
</svg>
