<svg width="29" height="24" viewBox="0 0 29 24" fill="none" xmlns="http://www.w3.org/2000/svg">
<path d="M20.9504 2.60127C21.3354 2.4828 21.75 2.52427 22.1054 2.71381C22.4608 2.90335 22.7214 3.2232 22.8399 3.60821V3.61414C22.8399 3.61414 22.8399 3.61414 22.8399 3.62006L25.3868 11.6993C24.6168 11.3498 23.758 11.1544 22.8576 11.1544C19.7776 11.1544 17.2247 13.4289 16.7864 16.3905H12.2018C11.7161 13.4881 9.18689 11.2669 6.14236 11.2669C5.23611 11.2669 4.37725 11.4624 3.60723 11.8178L6.18382 3.62598C6.18382 3.62598 6.18382 3.62598 6.18382 3.62006V3.61414C6.42667 2.8145 7.27369 2.36434 8.07333 2.60719C8.61234 2.76712 9.17504 2.46503 9.34089 1.93195C9.50674 1.39293 9.19873 0.83023 8.66565 0.664381C6.79984 0.0957532 4.82149 1.15008 4.24694 3.00997C4.24694 3.00997 4.24694 3.00997 4.24694 3.01589V3.02182L0.467933 15.0222C0.456087 15.0578 0.450163 15.0933 0.438317 15.1288C0.154003 15.8337 0 16.6037 0 17.4034C0 20.7914 2.75429 23.5457 6.14236 23.5457C9.18096 23.5457 11.7161 21.3245 12.2018 18.4221H16.8219C17.3491 21.2712 19.8546 23.4391 22.8576 23.4391C26.2457 23.4391 29 20.6848 29 17.2967C29 16.4853 28.8401 15.7152 28.5558 15.0045L24.7768 3.00997V3.00405C24.4984 2.10372 23.8883 1.36332 23.059 0.919079C22.2239 0.474838 21.2643 0.380067 20.358 0.652534C19.819 0.818384 19.517 1.38109 19.6828 1.9201C19.8427 2.46503 20.4114 2.76712 20.9504 2.60127ZM6.14236 21.5141C3.87377 21.5141 2.03166 19.6719 2.03166 17.4034C2.03166 15.1348 3.87377 13.2926 6.14236 13.2926C8.41095 13.2926 10.2531 15.1348 10.2531 17.4034C10.2531 19.6719 8.41095 21.5141 6.14236 21.5141ZM22.8576 21.4074C20.5891 21.4074 18.7469 19.5653 18.7469 17.2967C18.7469 15.0281 20.5891 13.186 22.8576 13.186C25.1262 13.186 26.9683 15.0281 26.9683 17.2967C26.9683 19.5653 25.1203 21.4074 22.8576 21.4074Z" fill="black"/>
</svg>
