<svg width="73" height="155" viewBox="0 0 73 155" fill="none" xmlns="http://www.w3.org/2000/svg">
<path d="M31.6099 132.155C33.7273 125.419 37.5506 120.674 41.8829 116.055C44.4462 113.322 46.3019 109.553 47.468 105.924C52.4286 90.4786 54.4648 74.7502 50.313 58.7227C49.7714 56.6345 48.9483 54.5518 47.876 52.6866C45.681 48.8655 42.2656 47.0927 37.8647 47.9229C31.4781 49.1265 25.3695 51.0733 20.1544 55.2243C17.5045 57.3342 15.5423 59.8157 14.9574 63.258C14.8311 64.0084 14.6505 65.0035 14.1307 65.3769C13.136 66.0911 11.8815 66.4373 10.7334 66.9376C10.376 66.0005 10.0041 65.067 9.67557 64.1208C9.60517 63.9159 9.62683 63.6368 9.70445 63.4265C13.1523 54.0497 11.2894 44.2541 11.8634 34.6597C12.3508 26.4919 12.1775 18.2842 12.2966 10.0928C12.34 7.09651 11.3868 4.76181 8.31088 3.67422C7.78739 3.48933 7.44983 2.77333 7.02562 2.30386C7.59604 2.00114 8.15383 1.45735 8.73509 1.43378C13.3129 1.23983 17.8944 1.0785 22.4758 1.03319C34.5107 0.91355 46.5456 0.911738 58.5805 0.739536C62.0572 0.690594 65.5231 0.159486 69.0016 0.00178545C69.8266 -0.0362803 70.6804 0.543769 71.5216 0.839231C71.0631 1.58242 70.7183 2.43618 70.1244 3.04886C67.1315 6.13943 67.6008 9.82093 68.1171 13.5767C68.1983 14.1695 67.7452 15.306 67.3246 15.4257C62.2197 16.874 58.1671 19.9301 54.4359 23.55C53.49 24.4672 52.425 25.2756 51.3347 26.0134C50.9754 26.2563 50.1631 26.3342 49.9158 26.1022C49.6396 25.8448 49.544 24.9983 49.7624 24.6648C53.5893 18.7954 50.8401 12.6668 50.4285 6.65604C50.3888 6.07236 49.2353 5.1751 48.5295 5.10078C45.9932 4.83432 43.4263 4.84157 40.8703 4.77994C39.2402 4.74006 37.6066 4.75275 35.9747 4.75819C32.2092 4.77088 31.7489 5.17147 31.6045 9.01067C31.4185 13.9973 31.4312 18.9948 31.1622 23.9778C30.8607 29.5825 30.2921 35.1709 29.9347 40.772C29.7054 44.3737 29.886 44.5568 33.4114 44.3375C36.9766 44.1145 40.5255 43.6469 44.0888 43.4148C53.2373 42.8185 60.7304 46.5217 67.1622 52.6992C70.1768 55.5959 71.1371 59.5348 71.74 63.4936C73.7166 76.474 73.4007 89.362 70.5414 102.235C68.9745 109.288 66.8246 115.935 61.0897 120.632C58.1689 123.025 54.5948 124.6 51.5368 126.846C46.6702 130.419 41.8017 134.033 37.2925 138.037C34.1479 140.829 33.8591 144.829 35.7454 147.831C37.4982 150.619 40.1013 150.579 41.7187 147.726C42.2945 146.709 42.7476 145.618 43.3902 144.648C44.4733 143.009 46.0023 142.197 47.9915 142.717C49.8003 143.191 51.7137 143.62 52.4015 145.714C53.1091 147.871 52.0874 149.542 50.591 150.916C46.4229 154.735 41.4822 155.729 36.0956 154.512C33.7345 153.979 32.5341 151.967 31.9149 149.848C31.2434 147.548 30.868 145.134 30.6279 142.741C30.4798 141.256 30.0213 140.287 28.6567 139.638C24.1673 137.504 19.8656 134.858 15.2083 133.226C6.02737 130.011 2.79075 123.295 3.18969 113.927C3.23301 112.914 3.25648 111.89 3.42797 110.896C3.8251 108.596 2.9821 106.988 0.994634 105.832C0.546958 105.571 0.326731 104.916 0 104.441C0.523492 104.215 1.04157 103.803 1.57047 103.787C9.32718 103.555 17.0875 103.368 24.846 103.203C25.2485 103.194 25.9706 103.439 25.9977 103.638C26.0572 104.084 25.902 104.69 25.606 105.034C20.1941 111.33 20.3692 120.866 26.1042 126.884C27.7487 128.61 29.5466 130.187 31.6135 132.155H31.6099Z" fill="#BE192D"/>
</svg>
