<svg width="52" height="36" viewBox="0 0 52 36" fill="none" xmlns="http://www.w3.org/2000/svg">
<path fill-rule="evenodd" clip-rule="evenodd" d="M7.26717 3.54565C9.16042 3.24805 10.4363 3.86154 11.1048 4.82745C11.6371 5.59656 11.867 6.7077 11.6033 8.02713C10.4104 6.90181 8.98131 5.7879 7.53054 5.1988C7.11671 5.03076 6.67142 5.28945 6.55585 5.72089C6.44029 6.15233 6.69862 6.59414 7.10685 6.77536C8.04167 7.19036 9.02231 7.89497 9.94768 8.7072C9.1932 8.63575 8.34515 8.50138 7.50565 8.30632C6.66099 8.11005 5.86114 7.86038 5.20927 7.57258C4.53483 7.27483 4.11129 6.97603 3.91726 6.72897C2.50457 4.93027 2.04097 3.62185 1.91126 2.80677C2.20025 2.92402 2.52877 3.04645 2.87112 3.15368C4.02463 3.51499 5.58273 3.81042 7.26717 3.54565ZM12.4347 3.90696C13.434 5.35071 13.5998 7.32131 12.9165 9.36008C13.4637 9.95509 13.9341 10.5177 14.2958 10.9796C14.5316 11.2808 14.7251 11.5442 14.8655 11.7498C14.8819 11.7739 14.8979 11.7975 14.9133 11.8208C17.8865 12.7391 20.3873 13.3938 23.7069 12.4376C24.1361 12.314 24.5976 12.5331 24.7452 12.9546C24.8929 13.3762 24.6708 13.8401 24.2423 13.9661C20.1743 15.162 17.1307 14.2104 13.8804 13.1942C13.6284 13.1154 13.3752 13.0363 13.1202 12.9577C11.1786 12.3594 9.35368 13.2485 8.2679 15.0279C7.18013 16.8105 6.89001 19.4445 8.17193 22.0789L8.48519 22.7226L1.84779 27.0188L3.56753 33.95L9.72707 33.95C9.53528 33.7172 9.29293 33.4686 9.00651 33.2271C8.15487 32.509 7.01104 31.9336 5.7881 31.9336H5.13865L4.34522 28.345L12.2206 24.4074L12.4454 24.4255L12.4487 24.4258L12.4527 24.4261L12.4631 24.427L12.4928 24.4301C12.5164 24.4327 12.5477 24.4366 12.5855 24.4421C12.6609 24.4531 12.7637 24.4709 12.8851 24.4991C13.1244 24.5548 13.4536 24.6553 13.7913 24.8366C14.4922 25.2131 15.2455 25.9612 15.2455 27.2746V30.0452L21.2503 33.95H25.5817C25.5661 33.9095 25.5495 33.8678 25.532 33.8247C25.3365 33.3452 25.0509 32.789 24.6993 32.2646C24.3455 31.7368 23.9439 31.2697 23.5258 30.9421C23.1063 30.6133 22.722 30.4642 22.3809 30.4642C21.2438 30.4642 20.6154 30.4011 20.218 30.264C19.9748 30.18 19.8179 30.0701 19.6969 29.9612L19.6626 29.9303L19.6418 29.92L17.4636 28.2726L18.1595 27.6163C19.0121 26.8122 19.8823 25.298 20.0482 23.6564C20.0496 23.6422 20.051 23.628 20.0523 23.6137L21.6869 23.412C21.6869 23.4132 21.6868 23.4144 21.6868 23.4155C23.5297 23.2084 24.9859 23.3553 26.2239 23.7533C27.1925 24.0647 27.9966 24.5207 28.7187 25.031L29.1902 21.9518C29.2861 21.2322 29.8111 20.6253 30.3433 20.1794C30.4104 20.1232 30.4798 20.0677 30.5513 20.0131C30.3564 19.9283 30.158 19.8351 29.9578 19.7328C28.2832 18.8766 26.4464 17.3588 25.4555 14.734L25.1153 13.8326L26.062 13.6537C27.0099 13.4747 27.6712 13.3169 28.1344 13.1829C27.7457 12.8804 27.3773 12.5301 27.0539 12.1783C26.3237 11.3839 25.6473 10.3893 25.4288 9.53857L25.0747 8.15984L26.4404 8.56153C27.7069 8.93409 29.2704 8.81153 30.7971 8.40408C32.315 7.99895 33.6968 7.33875 34.558 6.7475C40.4388 2.70992 46.1851 4.42081 49.2241 8.03681C50.7293 9.82782 51.5842 12.1046 51.4244 14.3723C51.294 16.2243 50.4893 18.019 48.8984 19.4834C49.0695 19.5507 49.2317 19.6188 49.379 19.688C49.6634 19.8216 49.9591 19.9876 50.2012 20.2078C50.4507 20.4346 50.6747 20.7486 50.7366 21.1637L51.7564 27.4231V27.4885C51.7564 28.6212 51.5085 29.5674 50.9217 30.3011C50.5977 30.7063 50.1972 31.0129 49.7435 31.2467C50.1914 31.7077 50.5125 32.2424 50.7366 32.7089C50.9682 33.1911 51.1208 33.6501 51.2157 33.9865C51.2634 34.1557 51.2972 34.2966 51.3195 34.3974C51.3306 34.4479 51.3389 34.4885 51.3447 34.5177L51.3514 34.553L51.3534 34.564L51.3541 34.5677L51.3544 34.5692L51.3546 34.5703L51.5167 35.5H44.9738C44.758 35.4796 44.5519 35.4519 44.3741 35.4126C44.2703 35.3896 44.1538 35.3579 44.0415 35.3111C43.9456 35.2711 43.7659 35.1855 43.6204 35.011C43.4178 34.7682 43.1897 34.4595 42.9668 34.158C42.8425 33.9897 42.7197 33.8237 42.6038 33.6723C42.2509 33.2113 41.9029 32.8027 41.5424 32.5072C41.1843 32.2137 40.8725 32.0801 40.5856 32.0693C40.3126 32.0589 39.9261 32.1546 39.3995 32.6007C39.0451 32.901 38.7713 33.2316 38.4614 33.6059L38.4614 33.6059C38.3093 33.7897 38.1484 33.984 37.965 34.1904C37.4808 34.7352 36.8361 35.3508 35.9007 35.5H29.372L29.372 34.7093C29.372 34.0562 29.682 33.2747 30.0494 32.5636C30.186 32.2992 30.3396 32.0278 30.5058 31.7548C30.0015 31.5843 29.5856 31.2998 29.2515 30.9552C28.6118 30.2952 28.3241 29.4679 28.1904 29.0646L28.1293 28.88L28.4406 26.8468C27.5968 26.1756 26.7715 25.6283 25.7289 25.2932C24.6645 24.951 23.3141 24.8124 21.4216 25.0795C21.1051 26.2402 20.5441 27.2893 19.9073 28.0928L20.5118 28.55C20.5814 28.5914 20.6383 28.6343 20.6852 28.674C20.7144 28.6987 20.7388 28.7214 20.7531 28.7348L20.7574 28.7389C20.8808 28.7777 21.2671 28.8468 22.3809 28.8468C23.2038 28.8468 23.9309 29.2046 24.5235 29.669C25.1176 30.1346 25.6291 30.7468 26.0428 31.3639C26.4587 31.9843 26.7951 32.6385 27.0297 33.2141C27.2509 33.7565 27.4238 34.33 27.4238 34.7587V35.5H20.667L13.6281 30.9228V27.2746C13.6281 26.7107 13.3532 26.4373 13.026 26.2616C12.8496 26.1668 12.6647 26.1085 12.5185 26.0745L12.5079 26.0721L6.19687 29.2276L6.4461 30.3548C7.89044 30.5243 9.14406 31.2274 10.0491 31.9905C10.5731 32.4323 11.0045 32.914 11.3077 33.3657C11.459 33.5912 11.5873 33.8225 11.6772 34.0491C11.7622 34.263 11.8379 34.5342 11.8169 34.8183L11.7665 35.5H2.28562L0 26.2881L6.42494 22.1295C5.25031 19.2263 5.59978 16.2952 6.8872 14.1854C8.06588 12.2537 10.0708 10.9804 12.3607 11.1703C12.1425 10.9154 11.9034 10.6459 11.6472 10.3696C10.4405 10.4422 8.72213 10.2495 7.13957 9.88179C6.22932 9.67029 5.32689 9.39258 4.55601 9.05225C3.80769 8.72187 3.088 8.29178 2.64523 7.72801C-0.0179091 4.3372 0.121302 2.14951 0.37701 1.33163L0.637018 0.5L1.44699 0.821179C1.49943 0.841972 1.58202 0.881594 1.69172 0.934228C2.46699 1.3062 4.59686 2.32808 7.016 1.94782C9.38856 1.57488 11.3417 2.32767 12.4347 3.90696ZM12.3112 26.0373L12.3144 26.0377L12.313 26.0375L12.3112 26.0373ZM46.7601 19.1162L46.7711 19.1156C48.8082 17.7793 49.6869 16.0208 49.811 14.2586C49.937 12.4693 49.2618 10.5957 47.9858 9.07745C45.4625 6.07495 40.6427 4.53191 35.4734 8.08093C34.4464 8.78609 32.8928 9.5188 31.2141 9.96683C30.0896 10.267 28.8633 10.4515 27.6734 10.3904C27.8403 10.6179 28.0323 10.8526 28.2448 11.0838C28.915 11.8129 29.6125 12.3154 30.0661 12.4428L31.3375 12.7999L30.4415 13.7701C30.038 14.207 29.4782 14.5803 27.3616 15.0412C28.2156 16.674 29.4893 17.6766 30.6942 18.2926C31.3154 18.6103 31.912 18.8215 32.4113 18.9596L32.4192 18.9563L32.4218 18.9625C32.8934 19.0924 33.2772 19.157 33.5115 19.1846L33.7012 19.1993L33.7014 19.2014L33.7036 19.2015L33.7027 19.2237L33.8992 22.4903C34.0607 25.2114 36.3145 27.3354 39.0404 27.3354H41.6097C44.4542 27.3354 46.7601 25.0295 46.7601 22.1851V19.1162ZM48.3775 22.1851V21.0162C48.4881 21.0608 48.5926 21.1056 48.6914 21.152C48.9151 21.2571 49.0445 21.3421 49.1133 21.4047C49.1269 21.4171 49.136 21.4265 49.1417 21.433L50.1386 27.552C50.1296 28.4191 49.9351 28.9451 49.6585 29.2909C49.3732 29.6477 48.912 29.9239 48.1587 30.1151C48.022 30.1499 47.8782 30.1811 47.7271 30.2093L40.8823 30.4446L40.8828 30.4724C40.8055 30.4626 40.7268 30.456 40.6468 30.453C39.8661 30.4234 39.0989 30.7355 38.3539 31.3666C37.8864 31.7627 37.4609 32.2753 37.1113 32.6964L37.1111 32.6966C36.9818 32.8524 36.8628 32.9957 36.7559 33.116C36.3196 33.607 36.0006 33.8413 35.659 33.9006H31.209C31.2813 33.7242 31.373 33.5255 31.4864 33.3061C31.7236 32.847 32.0275 32.3497 32.3674 31.8574L32.4149 31.8487L32.4061 31.8017C32.5348 31.6169 32.6684 31.4331 32.8053 31.2524C33.3217 30.5712 33.8669 29.9596 34.3475 29.5275C34.5886 29.3108 34.7963 29.1547 34.9618 29.0574C35.0824 28.9865 35.1469 28.9668 35.1638 28.9616L35.167 28.9606L35.1683 28.9601H47.0051C47.4517 28.9601 47.8138 28.598 47.8138 28.1514C47.8138 27.7047 47.4517 27.3427 47.0051 27.3427H45.9919C47.4515 26.1013 48.3775 24.2513 48.3775 22.1851ZM32.2845 22.5862C32.4001 24.5321 33.3299 26.2456 34.7308 27.4034C34.5116 27.4645 34.311 27.5637 34.1419 27.6632C33.851 27.8342 33.5543 28.0656 33.2661 28.3247C32.6879 28.8446 32.0743 29.5392 31.5164 30.2753L31.4916 30.3081C30.9736 30.282 30.646 30.0698 30.4129 29.8294C30.1034 29.5102 29.9153 29.0901 29.7877 28.7355L30.792 22.1772L30.7933 22.1667C30.8059 22.0675 30.9315 21.7967 31.382 21.4193C31.6057 21.2319 31.8774 21.0457 32.1827 20.8708L32.2845 22.5862ZM43.3851 32.067C44.0395 32.0667 44.6575 32.0621 45.2334 32.0462C46.1571 32.0206 47.0096 31.9653 47.7696 31.8433C48.4328 32.0646 48.9264 32.676 49.2786 33.4093C49.3618 33.5825 49.4328 33.7538 49.4926 33.915L49.2107 33.9206L48.9389 33.926C48.3004 33.9386 47.6004 33.9508 46.9406 33.95C46.2767 33.9493 45.6725 33.9353 45.2209 33.8981C45.0124 33.8809 44.857 33.8603 44.7521 33.8393C44.6124 33.6637 44.4718 33.473 44.3166 33.2624L44.3159 33.2615L44.3152 33.2605C44.186 33.0852 44.0464 32.8958 43.8881 32.6891C43.7328 32.4862 43.5651 32.2749 43.3851 32.067ZM38.6891 23.8115C37.6169 23.8115 37.2614 23.5865 37.1398 23.4574C37.1101 23.426 37.083 23.3887 37.0591 23.3425C36.8531 22.9462 36.5767 22.5495 36.13 22.5495C35.6834 22.5495 35.3033 22.9151 35.382 23.3548C35.456 23.7686 35.6171 24.2001 35.9627 24.5668C36.5484 25.1882 37.4724 25.4289 38.6891 25.4289H42.4577C43.6512 25.4289 44.4523 24.9926 44.876 24.2501C45.2284 23.6327 45.2281 23.4698 45.2275 23.1333L45.2275 23.1303C45.2269 22.8095 44.9674 22.5495 44.6466 22.5495H44.4187C43.9721 22.5495 43.6807 22.9325 43.5185 23.3486C43.5048 23.3837 43.4892 23.417 43.4712 23.4484C43.4047 23.565 43.2253 23.8115 42.4577 23.8115H38.6891Z" fill="black"/>
<path fill-rule="evenodd" clip-rule="evenodd" d="M13.7513 12.7698C13.5417 12.5948 13.3387 12.4254 13.1445 12.2613L14.2436 10.9609C14.4287 11.1174 14.6276 11.2829 14.8373 11.4574C16.5971 12.9218 19.1179 15.0196 20.603 17.6847C21.4481 19.2013 21.9808 20.9346 21.8522 22.8691C21.7236 24.804 20.9386 26.8611 19.2815 29.0336L17.9278 28.0011C19.4248 26.0383 20.0512 24.2931 20.1534 22.7562C20.2556 21.2189 19.8386 19.8107 19.1157 18.5134C17.7967 16.1463 15.5359 14.2593 13.7513 12.7698Z" fill="black"/>
<path fill-rule="evenodd" clip-rule="evenodd" d="M39.5561 16.0268C40.0846 16.2119 40.7063 16.2119 41.2347 16.0268C41.8887 15.7977 42.667 15.7779 43.4035 15.8427C44.5182 15.9405 45.6944 16.248 46.537 16.534C46.9397 16.6707 47.1402 17.1444 47.0005 17.5758C46.8532 18.0308 46.3858 18.2642 45.9595 18.1256C45.218 17.8845 44.2197 17.6325 43.2896 17.5508C42.6246 17.4924 42.0629 17.5279 41.6708 17.6653C41.4508 17.7424 41.3268 17.8325 41.2557 17.9251C41.2052 17.9907 41.1812 18.0575 41.1684 18.1215C41.1388 18.2676 41.1181 18.3995 41.1043 18.5183C41.0758 18.7636 41.0618 18.9566 41.1064 19.2166C41.1112 19.2446 41.1166 19.2705 41.1221 19.2943C41.168 19.4915 41.2472 19.6144 41.3412 19.7224C41.3888 19.7771 41.4348 19.8225 41.498 19.8842L41.4991 19.8855L41.5273 19.9133L41.535 19.9209L41.5355 19.9214C41.5956 19.9805 41.7158 20.0987 41.8087 20.245C41.9277 20.4322 42.0503 20.74 41.976 21.1217C41.9143 21.4389 41.7406 21.6592 41.6211 21.7892L41.6109 21.8003L41.6109 21.8003C41.5609 21.8547 41.5138 21.906 41.4685 21.9542C41.1675 22.2745 40.817 22.6226 40.3954 22.6423C39.9739 22.6226 39.6234 22.2745 39.3224 21.9542C39.2771 21.906 39.23 21.8547 39.18 21.8003L39.1698 21.7892C39.0503 21.6592 38.8766 21.4389 38.8149 21.1217C38.7406 20.74 38.8632 20.4322 38.9822 20.245C39.0751 20.0987 39.1953 19.9805 39.2554 19.9214L39.2559 19.9209L39.2636 19.9133L39.2918 19.8855L39.2929 19.8842C39.3561 19.8225 39.4021 19.7771 39.4497 19.7224C39.5437 19.6144 39.6229 19.4915 39.6688 19.2943C39.6743 19.2705 39.6797 19.2446 39.6845 19.2166C39.7291 18.9566 39.7151 18.7636 39.6866 18.5183C39.6728 18.3995 39.6521 18.2676 39.6225 18.1215C39.6097 18.0575 39.5857 17.9907 39.5352 17.9251C39.4641 17.8325 39.3401 17.7424 39.1201 17.6653C38.728 17.5279 38.1663 17.4924 37.5013 17.5508C36.5712 17.6325 35.5729 17.8845 34.8314 18.1256C34.4051 18.2642 33.9377 18.0308 33.7904 17.5758C33.6507 17.1444 33.8512 16.6707 34.2539 16.534C35.0965 16.248 36.2727 15.9405 37.3874 15.8427C38.1239 15.7779 38.9022 15.7977 39.5561 16.0268Z" fill="black"/>
<path fill-rule="evenodd" clip-rule="evenodd" d="M47.5155 11.8218L46.6534 13.1305C46.7458 13.1851 46.8211 13.2378 46.879 13.289C46.9247 13.3294 46.9486 13.3596 46.9604 13.3778C46.9706 13.3937 46.9719 13.4008 46.9724 13.4037L46.9724 13.4037L46.9724 13.4037C46.9729 13.4065 46.9766 13.4267 46.9657 13.472C46.9541 13.5201 46.9254 13.5985 46.8566 13.709C46.8147 13.7764 46.7696 13.8169 46.6047 13.8217C46.3949 13.8279 46.0874 13.7626 45.6817 13.615C45.2996 13.4759 44.9066 13.2933 44.5141 13.111L44.4738 13.0923L44.4474 13.08C44.0879 12.913 43.6639 12.716 43.3248 12.6301C42.6018 12.4468 41.9273 12.7213 41.4889 12.9712C41.2798 13.0904 41.1642 13.3201 41.1642 13.5608V13.6644C41.1642 13.9431 41.3128 14.2006 41.5541 14.3399L41.6266 14.3818C41.8588 14.5158 42.1449 14.4874 42.3777 14.3547C42.7136 14.1632 42.9173 14.1502 42.9909 14.1689C43.1411 14.2069 43.4028 14.3223 43.8305 14.521L43.8916 14.5494L43.8916 14.5494C44.2674 14.7241 44.7229 14.9358 45.1786 15.1016C45.6489 15.2728 46.2059 15.4287 46.7435 15.4129C47.3259 15.3957 47.9108 15.1709 48.2758 14.584C48.5456 14.1503 48.6761 13.6865 48.5898 13.2112C48.5039 12.7376 48.2265 12.3847 47.95 12.1401C47.8109 12.0171 47.6614 11.9117 47.5155 11.8218Z" fill="black"/>
<path fill-rule="evenodd" clip-rule="evenodd" d="M44.6216 12.1695C44.4054 12.0697 43.7636 11.7837 43.4781 11.6172C43.7687 10.9694 43.7453 10.8099 44.066 10.4486C44.2244 10.2701 44.4101 10.0997 44.6219 9.9795C44.8202 9.86699 45.1602 9.73396 45.5484 9.84911C45.9754 9.97574 46.1881 10.3163 46.2755 10.5821C46.3592 10.8364 46.3641 11.1057 46.3431 11.3425C46.3002 11.8259 46.1714 12.0222 45.7854 12.6683L44.6216 12.1695Z" fill="black"/>
<path fill-rule="evenodd" clip-rule="evenodd" d="M33.4962 11.8218L34.3584 13.1305C34.2659 13.1851 34.1906 13.2378 34.1327 13.289C34.087 13.3294 34.0631 13.3596 34.0514 13.3778C34.0411 13.3937 34.0398 13.4008 34.0393 13.4037L34.0393 13.4037L34.0393 13.4037C34.0388 13.4065 34.0351 13.4267 34.0461 13.472C34.0577 13.5201 34.0864 13.5985 34.1551 13.709C34.197 13.7764 34.2421 13.8169 34.407 13.8217C34.6168 13.8279 34.9243 13.7626 35.33 13.615C35.7121 13.4759 36.1051 13.2933 36.4976 13.111L36.5379 13.0923L36.5644 13.08C36.9238 12.913 37.3478 12.716 37.687 12.6301C38.4099 12.4468 39.0844 12.7213 39.5228 12.9712C39.732 13.0904 39.8476 13.3201 39.8476 13.5608V13.6644C39.8476 13.9431 39.6989 14.2006 39.4576 14.3399L39.3851 14.3818C39.153 14.5158 38.8669 14.4874 38.634 14.3547C38.2981 14.1632 38.0944 14.1502 38.0208 14.1689C37.8706 14.2069 37.6089 14.3223 37.1812 14.521L37.1201 14.5494L37.1201 14.5494C36.7443 14.7241 36.2888 14.9358 35.8331 15.1016C35.3628 15.2728 34.8058 15.4287 34.2682 15.4129C33.6858 15.3957 33.1009 15.1709 32.7359 14.584C32.4661 14.1503 32.3356 13.6865 32.4219 13.2112C32.5079 12.7376 32.7852 12.3847 33.0617 12.1401C33.2008 12.0171 33.3503 11.9117 33.4962 11.8218Z" fill="black"/>
<path fill-rule="evenodd" clip-rule="evenodd" d="M36.3862 12.1695C36.6024 12.0697 37.2442 11.7837 37.5297 11.6172C37.2391 10.9694 37.2626 10.8099 36.9418 10.4486C36.7834 10.2701 36.5977 10.0997 36.3859 9.9795C36.1876 9.86699 35.8477 9.73396 35.4594 9.84911C35.0324 9.97574 34.8198 10.3163 34.7323 10.5821C34.6486 10.8364 34.6437 11.1057 34.6647 11.3425C34.7076 11.8259 34.8364 12.0222 35.2224 12.6683L36.3862 12.1695Z" fill="black"/>
</svg>
