<svg width="508" height="247" viewBox="0 0 508 247" fill="none" xmlns="http://www.w3.org/2000/svg">
<g clip-path="url(#clip0_205_72)">
<path d="M205.538 116.897C193.76 116.897 184.215 126.418 184.215 138.166H226.861C226.861 126.418 217.316 116.897 205.538 116.897Z" fill="white" stroke="#768094" stroke-linecap="round" stroke-linejoin="round"/>
<path d="M223.896 138.16H201.472V244.828H223.896V138.16Z" fill="white" stroke="#768094" stroke-linecap="round" stroke-linejoin="round"/>
<path d="M208.2 142.635C206.962 142.635 205.957 143.589 205.957 144.761V159.981H210.443V144.761C210.443 143.584 209.438 142.635 208.2 142.635Z" fill="white" stroke="#768094" stroke-linecap="round" stroke-linejoin="round"/>
<path d="M212.688 142.635C211.45 142.635 210.445 143.589 210.445 144.761V159.981H214.931V144.761C214.931 143.584 213.927 142.635 212.688 142.635Z" fill="white" stroke="#768094" stroke-linecap="round" stroke-linejoin="round"/>
<path d="M217.169 142.635C215.93 142.635 214.926 143.589 214.926 144.761V159.981H219.411V144.761C219.411 143.584 218.407 142.635 217.169 142.635Z" fill="white" stroke="#768094" stroke-linecap="round" stroke-linejoin="round"/>
<path d="M217.169 171.828C215.93 171.828 214.926 172.783 214.926 173.954V211.005H219.411V173.954C219.411 172.777 218.407 171.828 217.169 171.828Z" fill="white" stroke="#768094" stroke-linecap="round" stroke-linejoin="round"/>
<path d="M221.653 142.635C220.415 142.635 219.41 143.589 219.41 144.761V159.981H223.896V144.761C223.896 143.584 222.891 142.635 221.653 142.635Z" fill="white" stroke="#768094" stroke-linecap="round" stroke-linejoin="round"/>
<path d="M229.602 134.03H185.148V138.159H229.602V134.03Z" fill="white" stroke="#768094" stroke-linecap="round" stroke-linejoin="round"/>
<path d="M219.411 211.006H214.926V244.828H219.411V211.006Z" fill="white" stroke="#768094" stroke-linecap="round" stroke-linejoin="round"/>
<path d="M65.9481 116.897C77.7257 116.897 87.2711 126.418 87.2711 138.166H44.625C44.625 126.418 54.1704 116.897 65.9481 116.897Z" fill="white" stroke="#768094" stroke-linecap="round" stroke-linejoin="round"/>
<path d="M47.5885 244.834H70.0117L70.0117 138.167H47.5885L47.5885 244.834Z" fill="white" stroke="#768094" stroke-linecap="round" stroke-linejoin="round"/>
<path d="M63.2858 142.635C64.5242 142.635 65.5287 143.589 65.5287 144.761V159.981H61.043V144.761C61.043 143.584 62.0475 142.635 63.2858 142.635Z" fill="white" stroke="#768094" stroke-linecap="round" stroke-linejoin="round"/>
<path d="M58.8014 142.635C60.0398 142.635 61.0443 143.589 61.0443 144.761V159.981H56.5586V144.761C56.5586 143.584 57.5631 142.635 58.8014 142.635Z" fill="white" stroke="#768094" stroke-linecap="round" stroke-linejoin="round"/>
<path d="M54.3132 142.635C55.5515 142.635 56.556 143.589 56.556 144.761V159.981H52.0703V144.761C52.0703 143.584 53.0748 142.635 54.3132 142.635Z" fill="white" stroke="#768094" stroke-linecap="round" stroke-linejoin="round"/>
<path d="M54.3132 171.828C55.5515 171.828 56.556 172.783 56.556 173.954V211.005H52.0703V173.954C52.0703 172.777 53.0748 171.828 54.3132 171.828Z" fill="white" stroke="#768094" stroke-linecap="round" stroke-linejoin="round"/>
<path d="M49.8288 142.635C51.0671 142.635 52.0717 143.589 52.0717 144.761V159.981H47.5859V144.761C47.5859 143.584 48.5904 142.635 49.8288 142.635Z" fill="white" stroke="#768094" stroke-linecap="round" stroke-linejoin="round"/>
<path d="M41.8828 138.166H86.3359V134.037H41.8828V138.166Z" fill="white" stroke="#768094" stroke-linecap="round" stroke-linejoin="round"/>
<path d="M52.0729 244.828H56.5586L56.5586 211.006H52.0729L52.0729 244.828Z" fill="white" stroke="#768094" stroke-linecap="round" stroke-linejoin="round"/>
<path d="M200.117 109.299H71.3711V131.74H200.117V109.299Z" fill="white" stroke="#768094" stroke-linecap="round" stroke-linejoin="round"/>
<path d="M148.064 36.1581C143.79 33.5339 137.854 32.972 135.744 27.6919C133.634 32.9667 127.702 33.5339 123.424 36.1581C118.46 39.2063 114.782 43.9404 114.543 49.9203H156.939C156.705 43.9351 153.022 39.201 148.058 36.1581H148.064Z" fill="white" stroke="#768094" stroke-linecap="round" stroke-linejoin="round"/>
<path d="M143.051 36.1581C140.516 33.5339 136.997 32.972 135.743 27.6919C134.494 32.9667 130.97 33.5339 128.435 36.1581C125.491 39.2063 123.306 43.9404 123.168 49.9203H148.318C148.18 43.9351 145.995 39.201 143.051 36.1581Z" fill="white" stroke="#768094" stroke-linecap="round" stroke-linejoin="round"/>
<path d="M135.742 27.6917V0.0454102" stroke="#768094" stroke-linecap="round" stroke-linejoin="round"/>
<path d="M132.207 8.44775H139.276" stroke="#768094" stroke-linecap="round" stroke-linejoin="round"/>
<path d="M117.276 46.8501C115.576 46.8501 114.199 48.2231 114.199 49.9196V55.0353H120.354V49.9196C120.354 48.2231 118.977 46.8501 117.276 46.8501Z" fill="white" stroke="#768094" stroke-linecap="round" stroke-linejoin="round"/>
<path d="M123.433 46.8501C121.732 46.8501 120.355 48.2231 120.355 49.9196V55.0353H126.51V49.9196C126.51 48.2231 125.133 46.8501 123.433 46.8501Z" fill="white" stroke="#768094" stroke-linecap="round" stroke-linejoin="round"/>
<path d="M129.585 46.8501C127.884 46.8501 126.508 48.2231 126.508 49.9196V55.0353H132.662V49.9196C132.662 48.2231 131.286 46.8501 129.585 46.8501Z" fill="white" stroke="#768094" stroke-linecap="round" stroke-linejoin="round"/>
<path d="M135.741 46.8501C134.041 46.8501 132.664 48.2231 132.664 49.9196V55.0353H138.819V49.9196C138.819 48.2231 137.442 46.8501 135.741 46.8501Z" fill="white" stroke="#768094" stroke-linecap="round" stroke-linejoin="round"/>
<path d="M141.894 46.8501C140.193 46.8501 138.816 48.2231 138.816 49.9196V55.0353H144.971V49.9196C144.971 48.2231 143.594 46.8501 141.894 46.8501Z" fill="white" stroke="#768094" stroke-linecap="round" stroke-linejoin="round"/>
<path d="M148.05 46.8501C146.349 46.8501 144.973 48.2231 144.973 49.9196V55.0353H151.127V49.9196C151.127 48.2231 149.751 46.8501 148.05 46.8501Z" fill="white" stroke="#768094" stroke-linecap="round" stroke-linejoin="round"/>
<path d="M154.199 46.8501C152.498 46.8501 151.121 48.2231 151.121 49.9196V55.0353H157.276V49.9196C157.276 48.2231 155.899 46.8501 154.199 46.8501Z" fill="white" stroke="#768094" stroke-linecap="round" stroke-linejoin="round"/>
<path d="M157.276 52.6509H114.199V57.4274H157.276V52.6509Z" fill="white" stroke="#768094" stroke-linecap="round" stroke-linejoin="round"/>
<path d="M157.276 57.4204H114.199V100.769H157.276V57.4204Z" fill="white" stroke="#768094" stroke-linecap="round" stroke-linejoin="round"/>
<path d="M114.199 57.4204V60.8769L118.51 64.9112L122.815 60.8769L127.125 64.9112L131.43 60.8769L135.74 64.9112L140.045 60.8769L144.356 64.9112L148.661 60.8769L152.971 64.9112L157.276 60.8769V57.4204H114.199Z" fill="white" stroke="#768094" stroke-linecap="round" stroke-linejoin="round"/>
<path d="M138.622 72.1324C138.622 70.5633 137.33 69.2856 135.746 69.2856C134.163 69.2856 132.871 70.5633 132.871 72.1324V97.144H138.627V72.1324H138.622Z" fill="white" stroke="#768094" stroke-linecap="round" stroke-linejoin="round"/>
<path d="M135.742 69.2856V97.144" stroke="#768094" stroke-linecap="round" stroke-linejoin="round"/>
<path d="M132.863 74.2153H138.619" stroke="#768094" stroke-linecap="round" stroke-linejoin="round"/>
<path d="M132.863 79.8892H138.619" stroke="#768094" stroke-linecap="round" stroke-linejoin="round"/>
<path d="M132.863 85.5669H138.619" stroke="#768094" stroke-linecap="round" stroke-linejoin="round"/>
<path d="M132.863 91.2388H138.619" stroke="#768094" stroke-linecap="round" stroke-linejoin="round"/>
<path d="M150.739 72.1324C150.739 70.5633 149.447 69.2856 147.864 69.2856C146.28 69.2856 144.988 70.5633 144.988 72.1324V97.144H150.744V72.1324H150.739Z" fill="white" stroke="#768094" stroke-linecap="round" stroke-linejoin="round"/>
<path d="M147.863 69.2856V97.144" stroke="#768094" stroke-linecap="round" stroke-linejoin="round"/>
<path d="M144.988 74.2153H150.739" stroke="#768094" stroke-linecap="round" stroke-linejoin="round"/>
<path d="M144.988 79.8892H150.739" stroke="#768094" stroke-linecap="round" stroke-linejoin="round"/>
<path d="M144.988 85.5669H150.739" stroke="#768094" stroke-linecap="round" stroke-linejoin="round"/>
<path d="M144.988 91.2388H150.739" stroke="#768094" stroke-linecap="round" stroke-linejoin="round"/>
<path d="M126.505 72.1324C126.505 70.5633 125.213 69.2856 123.629 69.2856C122.045 69.2856 120.754 70.5633 120.754 72.1324V97.144H126.51V72.1324H126.505Z" fill="white" stroke="#768094" stroke-linecap="round" stroke-linejoin="round"/>
<path d="M123.625 69.2856V97.144" stroke="#768094" stroke-linecap="round" stroke-linejoin="round"/>
<path d="M120.746 74.2153H126.502" stroke="#768094" stroke-linecap="round" stroke-linejoin="round"/>
<path d="M120.746 79.8892H126.502" stroke="#768094" stroke-linecap="round" stroke-linejoin="round"/>
<path d="M120.746 85.5669H126.502" stroke="#768094" stroke-linecap="round" stroke-linejoin="round"/>
<path d="M120.746 91.2388H126.502" stroke="#768094" stroke-linecap="round" stroke-linejoin="round"/>
<path d="M144.984 69.4874C144.984 67.7538 143.555 66.3384 141.801 66.3384C140.047 66.3384 138.617 67.7485 138.617 69.4874V97.1443H144.979V69.4874H144.984Z" fill="white" stroke="#768094" stroke-linecap="round" stroke-linejoin="round"/>
<path d="M132.859 69.4874C132.859 67.7538 131.43 66.3384 129.676 66.3384C127.922 66.3384 126.492 67.7485 126.492 69.4874V97.1443H132.854V69.4874H132.859Z" fill="white" stroke="#768094" stroke-linecap="round" stroke-linejoin="round"/>
<path d="M157.102 69.4874C157.102 67.7538 155.672 66.3384 153.918 66.3384C152.164 66.3384 150.734 67.7485 150.734 69.4874V97.1443H157.096V69.4874H157.102Z" fill="white" stroke="#768094" stroke-linecap="round" stroke-linejoin="round"/>
<path d="M120.742 69.4874C120.742 67.7538 119.312 66.3384 117.559 66.3384C115.805 66.3384 114.375 67.7485 114.375 69.4874V97.1443H120.737V69.4874H120.742Z" fill="white" stroke="#768094" stroke-linecap="round" stroke-linejoin="round"/>
<path d="M165.961 103.893H105.516V125.549H165.961V103.893Z" fill="white" stroke="#768094" stroke-linecap="round" stroke-linejoin="round"/>
<path d="M105.516 103.893L114.673 100.776H157.75L165.966 103.893H105.516Z" fill="white" stroke="#768094" stroke-linecap="round" stroke-linejoin="round"/>
<path d="M201.469 131.741H70.0117V244.871H201.469V131.741Z" fill="white" stroke="#768094" stroke-linecap="round" stroke-linejoin="round"/>
<path d="M176.261 109.299C167.342 109.299 159.641 114.473 156.001 121.975C152.36 114.473 144.659 109.299 135.741 109.299C126.822 109.299 119.121 114.473 115.48 121.975C111.84 114.473 104.133 109.299 95.2203 109.299C82.7942 109.299 72.7227 119.345 72.7227 131.74H198.758C198.758 119.345 188.687 109.299 176.261 109.299Z" fill="white" stroke="#768094" stroke-linecap="round" stroke-linejoin="round"/>
<path d="M135.745 113.764C125.791 113.764 117.723 121.812 117.723 131.741V244.828H153.773V131.741C153.773 121.812 145.705 113.764 135.751 113.764H135.745Z" fill="white" stroke="#768094" stroke-linecap="round" stroke-linejoin="round"/>
<path d="M95.2218 113.764C85.2671 113.764 77.1992 121.812 77.1992 131.741V244.828H113.25V131.741C113.25 121.812 105.182 113.764 95.2271 113.764H95.2218Z" fill="white" stroke="#768094" stroke-linecap="round" stroke-linejoin="round"/>
<path d="M176.261 113.764C166.306 113.764 158.238 121.812 158.238 131.741V244.828H194.289V131.741C194.289 121.812 186.221 113.764 176.266 113.764H176.261Z" fill="white" stroke="#768094" stroke-linecap="round" stroke-linejoin="round"/>
<path d="M138.614 130.42C138.614 128.851 137.328 127.579 135.739 127.579C134.149 127.579 132.863 128.851 132.863 130.42V155.389H138.609V130.42H138.614Z" fill="white" stroke="#768094" stroke-linecap="round" stroke-linejoin="round"/>
<path d="M135.742 127.579V155.389" stroke="#768094" stroke-linecap="round" stroke-linejoin="round"/>
<path d="M132.871 132.499H138.616" stroke="#768094" stroke-linecap="round" stroke-linejoin="round"/>
<path d="M132.871 138.161H138.616" stroke="#768094" stroke-linecap="round" stroke-linejoin="round"/>
<path d="M132.871 143.827H138.616" stroke="#768094" stroke-linecap="round" stroke-linejoin="round"/>
<path d="M132.871 149.495H138.616" stroke="#768094" stroke-linecap="round" stroke-linejoin="round"/>
<path d="M153.765 166.93H117.715V171.829H153.765V166.93Z" fill="white" stroke="#768094" stroke-linecap="round" stroke-linejoin="round"/>
<path d="M113.246 166.93H77.1953V171.829H113.246V166.93Z" fill="white" stroke="#768094" stroke-linecap="round" stroke-linejoin="round"/>
<path d="M194.293 166.93H158.242V171.829H194.293V166.93Z" fill="white" stroke="#768094" stroke-linecap="round" stroke-linejoin="round"/>
<path d="M120.044 176.35C118.805 176.35 117.801 177.304 117.801 178.476V193.696H122.286V178.476C122.286 177.299 121.282 176.35 120.044 176.35Z" fill="white" stroke="#768094" stroke-linecap="round" stroke-linejoin="round"/>
<path d="M124.532 176.35C123.294 176.35 122.289 177.304 122.289 178.476V193.696H126.775V178.476C126.775 177.299 125.77 176.35 124.532 176.35Z" fill="white" stroke="#768094" stroke-linecap="round" stroke-linejoin="round"/>
<path d="M129.016 176.35C127.778 176.35 126.773 177.304 126.773 178.476V193.696H131.259V178.476C131.259 177.299 130.255 176.35 129.016 176.35Z" fill="white" stroke="#768094" stroke-linecap="round" stroke-linejoin="round"/>
<path d="M133.501 176.35C132.262 176.35 131.258 177.304 131.258 178.476V193.696H135.744V178.476C135.744 177.299 134.739 176.35 133.501 176.35Z" fill="white" stroke="#768094" stroke-linecap="round" stroke-linejoin="round"/>
<path d="M137.985 176.35C136.747 176.35 135.742 177.304 135.742 178.476V193.696H140.228V178.476C140.228 177.299 139.223 176.35 137.985 176.35Z" fill="white" stroke="#768094" stroke-linecap="round" stroke-linejoin="round"/>
<path d="M142.473 176.35C141.235 176.35 140.231 177.304 140.231 178.476V193.696H144.716V178.476C144.716 177.299 143.712 176.35 142.473 176.35Z" fill="white" stroke="#768094" stroke-linecap="round" stroke-linejoin="round"/>
<path d="M146.95 176.35C145.712 176.35 144.707 177.304 144.707 178.476V193.696H149.193V178.476C149.193 177.299 148.188 176.35 146.95 176.35Z" fill="white" stroke="#768094" stroke-linecap="round" stroke-linejoin="round"/>
<path d="M151.438 176.35C150.2 176.35 149.195 177.304 149.195 178.476V193.696H153.681V178.476C153.681 177.299 152.677 176.35 151.438 176.35Z" fill="white" stroke="#768094" stroke-linecap="round" stroke-linejoin="round"/>
<path d="M160.481 176.35C159.243 176.35 158.238 177.304 158.238 178.476V193.696H162.724V178.476C162.724 177.299 161.719 176.35 160.481 176.35Z" fill="white" stroke="#768094" stroke-linecap="round" stroke-linejoin="round"/>
<path d="M164.969 176.35C163.731 176.35 162.727 177.304 162.727 178.476V193.696H167.212V178.476C167.212 177.299 166.208 176.35 164.969 176.35Z" fill="white" stroke="#768094" stroke-linecap="round" stroke-linejoin="round"/>
<path d="M169.446 176.35C168.208 176.35 167.203 177.304 167.203 178.476V193.696H171.689V178.476C171.689 177.299 170.684 176.35 169.446 176.35Z" fill="white" stroke="#768094" stroke-linecap="round" stroke-linejoin="round"/>
<path d="M173.934 176.35C172.696 176.35 171.691 177.304 171.691 178.476V193.696H176.177V178.476C176.177 177.299 175.173 176.35 173.934 176.35Z" fill="white" stroke="#768094" stroke-linecap="round" stroke-linejoin="round"/>
<path d="M178.419 176.35C177.18 176.35 176.176 177.304 176.176 178.476V193.696H180.661V178.476C180.661 177.299 179.657 176.35 178.419 176.35Z" fill="white" stroke="#768094" stroke-linecap="round" stroke-linejoin="round"/>
<path d="M182.903 176.35C181.665 176.35 180.66 177.304 180.66 178.476V193.696H185.146V178.476C185.146 177.299 184.141 176.35 182.903 176.35Z" fill="white" stroke="#768094" stroke-linecap="round" stroke-linejoin="round"/>
<path d="M187.387 176.35C186.149 176.35 185.145 177.304 185.145 178.476V193.696H189.63V178.476C189.63 177.299 188.626 176.35 187.387 176.35Z" fill="white" stroke="#768094" stroke-linecap="round" stroke-linejoin="round"/>
<path d="M191.876 176.35C190.637 176.35 189.633 177.304 189.633 178.476V193.696H194.119V178.476C194.119 177.299 193.114 176.35 191.876 176.35Z" fill="white" stroke="#768094" stroke-linecap="round" stroke-linejoin="round"/>
<path d="M79.6061 176.35C78.3678 176.35 77.3633 177.304 77.3633 178.476V193.696H81.849V178.476C81.849 177.299 80.8445 176.35 79.6061 176.35Z" fill="white" stroke="#768094" stroke-linecap="round" stroke-linejoin="round"/>
<path d="M84.0944 176.35C82.8561 176.35 81.8516 177.304 81.8516 178.476V193.696H86.3373V178.476C86.3373 177.299 85.3328 176.35 84.0944 176.35Z" fill="white" stroke="#768094" stroke-linecap="round" stroke-linejoin="round"/>
<path d="M88.5788 176.35C87.3404 176.35 86.3359 177.304 86.3359 178.476V193.696H90.8217V178.476C90.8217 177.299 89.8171 176.35 88.5788 176.35Z" fill="white" stroke="#768094" stroke-linecap="round" stroke-linejoin="round"/>
<path d="M93.0632 176.35C91.8248 176.35 90.8203 177.304 90.8203 178.476V193.696H95.306V178.476C95.306 177.299 94.3015 176.35 93.0632 176.35Z" fill="white" stroke="#768094" stroke-linecap="round" stroke-linejoin="round"/>
<path d="M97.5436 176.35C96.3053 176.35 95.3008 177.304 95.3008 178.476V193.696H99.7865V178.476C99.7865 177.299 98.782 176.35 97.5436 176.35Z" fill="white" stroke="#768094" stroke-linecap="round" stroke-linejoin="round"/>
<path d="M102.028 176.35C100.79 176.35 99.7852 177.304 99.7852 178.476V193.696H104.271V178.476C104.271 177.299 103.266 176.35 102.028 176.35Z" fill="white" stroke="#768094" stroke-linecap="round" stroke-linejoin="round"/>
<path d="M106.512 176.35C105.274 176.35 104.27 177.304 104.27 178.476V193.696H108.755V178.476C108.755 177.299 107.751 176.35 106.512 176.35Z" fill="white" stroke="#768094" stroke-linecap="round" stroke-linejoin="round"/>
<path d="M111.001 176.35C109.762 176.35 108.758 177.304 108.758 178.476V193.696H113.244V178.476C113.244 177.299 112.239 176.35 111.001 176.35Z" fill="white" stroke="#768094" stroke-linecap="round" stroke-linejoin="round"/>
<path d="M150.922 222.329V244.827H146.038V222.329C146.038 216.667 141.419 212.055 135.738 212.055C130.056 212.055 125.438 216.661 125.438 222.329V244.827H120.559V222.329C120.559 213.984 127.367 207.188 135.738 207.188C144.109 207.188 150.922 213.979 150.922 222.329Z" fill="white" stroke="#768094" stroke-linecap="round" stroke-linejoin="round"/>
<path d="M147.272 222.503V244.869H124.211V222.503C124.211 216.163 129.382 211.004 135.739 211.004C142.095 211.004 147.272 216.163 147.272 222.503Z" fill="white" stroke="#768094" stroke-linecap="round" stroke-linejoin="round"/>
<path d="M147.269 222.503V244.869H143.56V222.503C143.56 218.198 140.052 214.699 135.736 214.699C131.421 214.699 127.913 218.198 127.913 222.503V244.869H124.203V222.503C124.203 216.163 129.374 211.004 135.731 211.004C142.088 211.004 147.264 216.163 147.264 222.503H147.269Z" fill="white" stroke="#768094" stroke-linecap="round" stroke-linejoin="round"/>
<path d="M140.595 159.982H130.891L132.868 155.391H138.613L140.595 159.982Z" fill="white" stroke="#768094" stroke-linecap="round" stroke-linejoin="round"/>
<path d="M130.891 159.981V129.016C130.891 126.345 133.064 124.176 135.743 124.176C138.422 124.176 140.595 126.345 140.595 129.016V159.981" fill="white"/>
<path d="M130.891 159.981V129.016C130.891 126.345 133.064 124.176 135.743 124.176C138.422 124.176 140.595 126.345 140.595 129.016V159.981" stroke="#768094" stroke-linecap="round" stroke-linejoin="round"/>
<path d="M179.094 130.418C179.094 128.849 177.808 127.577 176.219 127.577C174.63 127.577 173.344 128.849 173.344 130.418V155.387H179.089V130.418H179.094Z" fill="white" stroke="#768094" stroke-linecap="round" stroke-linejoin="round"/>
<path d="M176.219 127.577V155.387" stroke="#768094" stroke-linecap="round" stroke-linejoin="round"/>
<path d="M173.352 132.497H179.097" stroke="#768094" stroke-linecap="round" stroke-linejoin="round"/>
<path d="M173.352 138.159H179.097" stroke="#768094" stroke-linecap="round" stroke-linejoin="round"/>
<path d="M173.352 143.825H179.097" stroke="#768094" stroke-linecap="round" stroke-linejoin="round"/>
<path d="M173.352 149.493H179.097" stroke="#768094" stroke-linecap="round" stroke-linejoin="round"/>
<path d="M181.072 159.98H171.367L173.35 155.389H179.095L181.072 159.98Z" fill="white" stroke="#768094" stroke-linecap="round" stroke-linejoin="round"/>
<path d="M171.367 159.979V129.014C171.367 126.343 173.541 124.174 176.22 124.174C178.898 124.174 181.072 126.343 181.072 129.014V159.979" fill="white"/>
<path d="M171.367 159.979V129.014C171.367 126.343 173.541 124.174 176.22 124.174C178.898 124.174 181.072 126.343 181.072 129.014V159.979" stroke="#768094" stroke-linecap="round" stroke-linejoin="round"/>
<path d="M98.1335 130.418C98.1335 128.849 96.8473 127.577 95.2581 127.577C93.669 127.577 92.3828 128.849 92.3828 130.418V155.387H98.1281V130.418H98.1335Z" fill="white" stroke="#768094" stroke-linecap="round" stroke-linejoin="round"/>
<path d="M95.2617 127.577V155.387" stroke="#768094" stroke-linecap="round" stroke-linejoin="round"/>
<path d="M92.3906 132.497H98.136" stroke="#768094" stroke-linecap="round" stroke-linejoin="round"/>
<path d="M92.3906 138.159H98.136" stroke="#768094" stroke-linecap="round" stroke-linejoin="round"/>
<path d="M92.3906 143.825H98.136" stroke="#768094" stroke-linecap="round" stroke-linejoin="round"/>
<path d="M92.3906 149.493H98.136" stroke="#768094" stroke-linecap="round" stroke-linejoin="round"/>
<path d="M100.116 159.98H90.4062L92.3887 155.389H98.134L100.116 159.98Z" fill="white" stroke="#768094" stroke-linecap="round" stroke-linejoin="round"/>
<path d="M90.4062 159.979V129.014C90.4062 126.343 92.58 124.174 95.2587 124.174C97.9374 124.174 100.111 126.343 100.111 129.014V159.979" fill="white"/>
<path d="M90.4062 159.979V129.014C90.4062 126.343 92.58 124.174 95.2587 124.174C97.9374 124.174 100.111 126.343 100.111 129.014V159.979" stroke="#768094" stroke-linecap="round" stroke-linejoin="round"/>
<path d="M294.125 93.6821H255.832V135.907H294.125V93.6821Z" fill="white" stroke="#768094" stroke-linecap="round" stroke-linejoin="round"/>
<path d="M296.298 93.6821H253.652V96.3646H296.298V93.6821Z" fill="white" stroke="#768094" stroke-linecap="round" stroke-linejoin="round"/>
<path d="M299.471 74.5028C298.929 68.0511 293.736 64.5469 288.714 61.5464C282.798 58.0051 275.22 39.3922 274.98 36.3228C274.747 39.3922 267.162 58.0051 261.247 61.5464C256.224 64.5522 251.032 68.0564 250.49 74.5028C250.027 79.9048 252.632 86.224 258.196 87.9151H291.77C297.335 86.224 299.939 79.9048 299.476 74.5028H299.471Z" fill="white"/>
<path d="M274.98 36.3228C275.22 39.3922 282.798 58.0051 288.714 61.5464C293.736 64.5469 298.929 68.0511 299.471 74.5028H299.476C299.939 79.9048 297.335 86.224 291.77 87.9151H258.196C252.632 86.224 250.027 79.9048 250.49 74.5028C251.032 68.0564 256.224 64.5522 261.247 61.5464C267.162 58.0051 274.747 39.3922 274.98 36.3228ZM274.98 36.3228C274.98 36.3387 274.98 36.3599 274.98 36.3758" stroke="#768094" stroke-linecap="round" stroke-linejoin="round"/>
<path d="M287.997 74.5022C287.71 68.0558 284.93 64.6153 282.278 61.5458C280.099 59.0224 278.079 48.3456 276.74 44.1999C276.081 42.1642 274.922 38.5222 274.981 36.1313C275.039 38.5169 273.881 42.1642 273.222 44.1999C271.882 48.3456 269.857 59.0224 267.684 61.5458C265.032 64.6153 262.252 68.0558 261.965 74.5022C261.72 79.9042 263.102 86.2234 266.063 87.9145H283.91C286.87 86.2234 288.252 79.9042 288.008 74.5022H287.997Z" fill="white" stroke="#768094" stroke-linecap="round" stroke-linejoin="round"/>
<path d="M291.766 87.9146H258.192C258.192 87.9146 255.646 89.3777 255.168 93.6824H294.795C294.317 89.383 291.771 87.9146 291.771 87.9146H291.766Z" fill="white" stroke="#768094" stroke-linecap="round" stroke-linejoin="round"/>
<path d="M274.976 36.1318V22.1841" stroke="#768094" stroke-linecap="round" stroke-linejoin="round"/>
<path d="M270.305 27.438H279.648" stroke="#768094" stroke-linecap="round" stroke-linejoin="round"/>
<path d="M276.231 101.571C276.231 100.776 275.487 100.156 274.663 100.357C274.095 100.495 273.722 101.046 273.722 101.635V130.712H276.231V101.571Z" fill="white" stroke="#768094" stroke-linecap="round" stroke-linejoin="round"/>
<path d="M262.911 101.571C262.911 100.776 262.167 100.156 261.343 100.357C260.774 100.495 260.402 101.046 260.402 101.635V130.712H262.911V101.571Z" fill="white" stroke="#768094" stroke-linecap="round" stroke-linejoin="round"/>
<path d="M289.551 101.571C289.551 100.776 288.807 100.156 287.984 100.357C287.415 100.495 287.043 101.046 287.043 101.635V130.712H289.551V101.571Z" fill="white" stroke="#768094" stroke-linecap="round" stroke-linejoin="round"/>
<path d="M297.884 122.717H252.07V135.907H297.884V122.717Z" fill="white" stroke="#768094" stroke-linecap="round" stroke-linejoin="round"/>
<path d="M260.372 126.328C260.101 125.777 259.309 125.777 259.038 126.328C255.131 126.667 252.07 129.933 252.07 133.914V135.908H267.34V133.914C267.34 129.933 264.273 126.667 260.372 126.328Z" fill="white" stroke="#768094" stroke-linecap="round" stroke-linejoin="round"/>
<path d="M275.645 126.328C275.374 125.777 274.582 125.777 274.311 126.328C270.405 126.667 267.343 129.933 267.343 133.914V135.908H282.613V133.914C282.613 129.933 279.546 126.667 275.645 126.328Z" fill="white" stroke="#768094" stroke-linecap="round" stroke-linejoin="round"/>
<path d="M290.915 126.328C290.644 125.777 289.852 125.777 289.581 126.328C285.674 126.667 282.613 129.933 282.613 133.914V135.908H297.883V133.914C297.883 129.933 294.816 126.667 290.915 126.328Z" fill="white" stroke="#768094" stroke-linecap="round" stroke-linejoin="round"/>
<path d="M258.566 120.688H235.25V153.169H258.566V120.688Z" fill="white" stroke="#768094" stroke-linecap="round" stroke-linejoin="round"/>
<path d="M258.566 120.688H235.25V124.934H258.566V120.688Z" fill="white" stroke="#768094" stroke-linecap="round" stroke-linejoin="round"/>
<path d="M261.825 109.015C261.496 105.092 258.312 102.998 255.272 101.127C252.774 99.5892 250.462 97.6277 248.926 95.099C248.171 93.8585 246.843 91.6425 246.907 90.1899C246.976 91.6425 245.642 93.8638 244.887 95.099C243.351 97.6224 241.034 99.5892 238.541 101.127C235.506 102.998 232.323 105.092 231.988 109.015C231.711 112.307 233.295 116.15 236.681 117.179H257.122C260.513 116.15 262.091 112.302 261.815 109.015H261.825Z" fill="white" stroke="#768094" stroke-linecap="round" stroke-linejoin="round"/>
<path d="M254.837 109.015C254.662 105.092 252.966 102.998 251.356 101.127C250.027 99.5892 248.8 97.6277 247.981 95.099C247.582 93.8585 246.876 91.6425 246.907 90.1899C246.945 91.6425 246.238 93.8638 245.834 95.099C245.015 97.6224 243.788 99.5892 242.459 101.127C240.843 102.998 239.153 105.092 238.978 109.015C238.829 112.307 239.669 116.15 241.47 117.179H252.334C254.136 116.15 254.975 112.302 254.827 109.015H254.837Z" fill="white" stroke="#768094" stroke-linecap="round" stroke-linejoin="round"/>
<path d="M257.133 117.178H236.692C236.692 117.178 235.14 118.069 234.848 120.688H258.972C258.679 118.069 257.127 117.178 257.127 117.178H257.133Z" fill="white" stroke="#768094" stroke-linecap="round" stroke-linejoin="round"/>
<path d="M246.914 90.1846V81.6919" stroke="#768094" stroke-linecap="round" stroke-linejoin="round"/>
<path d="M244.062 84.8931H249.755" stroke="#768094" stroke-linecap="round" stroke-linejoin="round"/>
<path d="M241.704 128.369C241.704 127.712 241.167 127.176 240.508 127.176C239.849 127.176 239.312 127.712 239.312 128.369V141.829H241.704V128.369Z" fill="white" stroke="#768094" stroke-linecap="round" stroke-linejoin="round"/>
<path d="M254.505 128.369C254.505 127.712 253.968 127.176 253.309 127.176C252.65 127.176 252.113 127.712 252.113 128.369V141.829H254.505V128.369Z" fill="white" stroke="#768094" stroke-linecap="round" stroke-linejoin="round"/>
<path d="M314.695 120.688H291.379V153.169H314.695V120.688Z" fill="white" stroke="#768094" stroke-linecap="round" stroke-linejoin="round"/>
<path d="M314.695 120.688H291.379V124.934H314.695V120.688Z" fill="white" stroke="#768094" stroke-linecap="round" stroke-linejoin="round"/>
<path d="M317.954 109.015C317.625 105.092 314.441 102.998 311.401 101.127C308.903 99.5892 306.591 97.6277 305.055 95.099C304.301 93.8585 302.972 91.6425 303.036 90.1899C303.105 91.6425 301.771 93.8638 301.016 95.099C299.48 97.6224 297.163 99.5892 294.67 101.127C291.635 102.998 288.452 105.092 288.117 109.015C287.841 112.307 289.419 116.15 292.81 117.179H313.251C316.642 116.15 318.22 112.302 317.944 109.015H317.954Z" fill="white" stroke="#768094" stroke-linecap="round" stroke-linejoin="round"/>
<path d="M310.966 109.015C310.791 105.092 309.095 102.998 307.485 101.127C306.156 99.5892 304.929 97.6277 304.11 95.099C303.711 93.8585 303.005 91.6425 303.036 90.1899C303.074 91.6425 302.367 93.8638 301.963 95.099C301.144 97.6224 299.917 99.5892 298.588 101.127C296.972 102.998 295.282 105.092 295.107 109.015C294.958 112.307 295.798 116.15 297.599 117.179H308.463C310.265 116.15 311.104 112.302 310.956 109.015H310.966Z" fill="white" stroke="#768094" stroke-linecap="round" stroke-linejoin="round"/>
<path d="M313.262 117.178H292.821C292.821 117.178 291.269 118.069 290.977 120.688H315.101C314.808 118.069 313.256 117.178 313.256 117.178H313.262Z" fill="white" stroke="#768094" stroke-linecap="round" stroke-linejoin="round"/>
<path d="M303.043 90.1846V81.6919" stroke="#768094" stroke-linecap="round" stroke-linejoin="round"/>
<path d="M300.195 84.8931H305.882" stroke="#768094" stroke-linecap="round" stroke-linejoin="round"/>
<path d="M297.841 128.369C297.841 127.712 297.304 127.176 296.645 127.176C295.986 127.176 295.449 127.712 295.449 128.369V141.829H297.841V128.369Z" fill="white" stroke="#768094" stroke-linecap="round" stroke-linejoin="round"/>
<path d="M310.642 128.369C310.642 127.712 310.105 127.176 309.446 127.176C308.787 127.176 308.25 127.712 308.25 128.369V141.829H310.642V128.369Z" fill="white" stroke="#768094" stroke-linecap="round" stroke-linejoin="round"/>
<path d="M306.241 135.907H243.707V157.632H306.241V135.907Z" fill="white" stroke="#768094" stroke-linecap="round" stroke-linejoin="round"/>
<path d="M324.204 157.897H332.506L325.936 152.41C325.936 149.07 324.688 145.884 322.423 143.435C320.34 141.182 317.571 139.729 314.557 139.3C314.047 138.844 313.378 138.579 312.655 138.579C311.932 138.579 311.262 138.839 310.752 139.3C307.739 139.729 304.97 141.182 302.886 143.435C302.195 144.182 301.6 144.999 301.106 145.863C300.611 144.993 300.016 144.177 299.325 143.435C297.242 141.182 294.473 139.729 291.459 139.3C290.949 138.844 290.279 138.579 289.557 138.579C288.834 138.579 288.164 138.839 287.654 139.3C284.64 139.729 281.871 141.182 279.788 143.435C279.187 144.082 278.661 144.781 278.209 145.524C277.508 144.029 276.572 142.629 275.424 141.389C272.836 138.589 269.381 136.798 265.629 136.294C265.055 135.732 264.274 135.409 263.434 135.409C262.594 135.409 261.813 135.732 261.239 136.294C257.487 136.798 254.032 138.589 251.444 141.389C250.296 142.629 249.361 144.023 248.659 145.524C248.207 144.781 247.676 144.082 247.08 143.435C244.997 141.182 242.228 139.729 239.215 139.3C238.704 138.844 238.035 138.579 237.312 138.579C236.589 138.579 235.919 138.839 235.409 139.3C232.396 139.729 229.627 141.182 227.543 143.435C225.274 145.884 224.03 149.075 224.03 152.41L217.461 157.897H225.763V152.41C225.763 146.388 230.397 141.447 236.307 140.933C236.515 140.514 236.913 140.302 237.317 140.302C237.721 140.302 238.12 140.514 238.327 140.933C244.232 141.442 248.872 146.382 248.872 152.41C248.872 144.808 254.723 138.574 262.175 137.932C262.435 137.402 262.94 137.137 263.445 137.137C263.95 137.137 264.46 137.402 264.715 137.932C272.166 138.574 278.018 144.808 278.018 152.41C278.018 146.388 282.653 141.447 288.563 140.933C288.77 140.514 289.169 140.302 289.572 140.302C289.976 140.302 290.375 140.514 290.582 140.933C296.487 141.442 301.127 146.382 301.127 152.41C301.127 146.388 305.761 141.447 311.672 140.933C311.879 140.514 312.277 140.302 312.681 140.302C313.085 140.302 313.484 140.514 313.691 140.933C319.596 141.442 324.236 146.382 324.236 152.41V157.897H324.204Z" fill="white" stroke="#768094" stroke-linecap="round" stroke-linejoin="round"/>
<path d="M313.66 140.933C313.251 140.095 312.055 140.095 311.646 140.933C305.741 141.442 301.101 146.383 301.101 152.41C301.101 146.388 296.467 141.447 290.556 140.933C290.147 140.095 288.951 140.095 288.542 140.933C282.637 141.442 277.998 146.383 277.998 152.41C277.998 144.808 272.146 138.574 264.695 137.932C264.179 136.877 262.67 136.877 262.149 137.932C254.697 138.574 248.846 144.808 248.846 152.41C248.846 146.388 244.211 141.447 238.301 140.933C237.892 140.095 236.696 140.095 236.287 140.933C230.382 141.442 225.742 146.383 225.742 152.41V155.427H324.199V152.41C324.199 146.388 319.565 141.447 313.655 140.933H313.66Z" fill="white" stroke="#768094" stroke-linecap="round" stroke-linejoin="round"/>
<path d="M327.122 157.896H222.824L225.747 155.346H324.204L327.122 157.896Z" fill="white" stroke="#768094" stroke-linecap="round" stroke-linejoin="round"/>
<path d="M324.203 157.897H225.746V244.822H324.203V157.897Z" fill="white" stroke="#768094" stroke-linecap="round" stroke-linejoin="round"/>
<path d="M248.848 152.411V244.823" stroke="#768094" stroke-linecap="round" stroke-linejoin="round"/>
<path d="M277.996 152.411V244.823" stroke="#768094" stroke-linecap="round" stroke-linejoin="round"/>
<path d="M301.098 152.411V244.823" stroke="#768094" stroke-linecap="round" stroke-linejoin="round"/>
<path d="M225.746 161.952H324.203" stroke="#768094" stroke-linecap="round" stroke-linejoin="round"/>
<path d="M237.297 167.184C233.071 167.184 229.516 170.572 229.516 174.749V198.525H244.945V174.749C244.945 170.572 241.522 167.184 237.297 167.184Z" fill="white" stroke="#768094" stroke-linecap="round" stroke-linejoin="round"/>
<path d="M237.257 215.606C235.667 215.606 234.376 216.878 234.376 218.453H234.328V227.407H240.137V218.453C240.137 216.878 238.846 215.606 237.257 215.606Z" fill="white" stroke="#768094" stroke-linecap="round" stroke-linejoin="round"/>
<path d="M237.231 175.639C235.716 175.639 234.488 176.864 234.488 178.375V192.439H239.973V178.375C239.973 176.864 238.745 175.639 237.231 175.639Z" fill="white" stroke="#768094" stroke-linecap="round" stroke-linejoin="round"/>
<path d="M234.488 179.61H239.973" stroke="#768094" stroke-linecap="round" stroke-linejoin="round"/>
<path d="M234.488 182.866H239.973" stroke="#768094" stroke-linecap="round" stroke-linejoin="round"/>
<path d="M234.488 186.12H239.973" stroke="#768094" stroke-linecap="round" stroke-linejoin="round"/>
<path d="M234.488 189.375H239.973" stroke="#768094" stroke-linecap="round" stroke-linejoin="round"/>
<path d="M237.23 175.639V192.434" stroke="#768094" stroke-linecap="round" stroke-linejoin="round"/>
<path d="M244.945 195.987H229.516V198.521H244.945V195.987Z" fill="white" stroke="#768094" stroke-linecap="round" stroke-linejoin="round"/>
<path d="M229.516 201.61V208.714" stroke="#768094" stroke-linecap="round" stroke-linejoin="round"/>
<path d="M232.605 201.61V208.714" stroke="#768094" stroke-linecap="round" stroke-linejoin="round"/>
<path d="M235.691 201.61V208.714" stroke="#768094" stroke-linecap="round" stroke-linejoin="round"/>
<path d="M238.773 201.61V208.714" stroke="#768094" stroke-linecap="round" stroke-linejoin="round"/>
<path d="M241.859 201.61V208.714" stroke="#768094" stroke-linecap="round" stroke-linejoin="round"/>
<path d="M244.945 201.61V208.714" stroke="#768094" stroke-linecap="round" stroke-linejoin="round"/>
<path d="M263.428 167.184C257.725 167.184 252.926 171.759 252.926 177.4V198.525H273.755V177.4C273.755 171.759 269.131 167.184 263.428 167.184Z" fill="white" stroke="#768094" stroke-linecap="round" stroke-linejoin="round"/>
<path d="M263.336 175.639C261.821 175.639 260.594 176.864 260.594 178.375V195.986H266.079V178.375C266.079 176.864 264.851 175.639 263.336 175.639Z" fill="white" stroke="#768094" stroke-linecap="round" stroke-linejoin="round"/>
<path d="M260.594 179.61H266.079" stroke="#768094" stroke-linecap="round" stroke-linejoin="round"/>
<path d="M260.594 182.866H266.079" stroke="#768094" stroke-linecap="round" stroke-linejoin="round"/>
<path d="M260.594 186.12H266.079" stroke="#768094" stroke-linecap="round" stroke-linejoin="round"/>
<path d="M260.594 189.375H266.079" stroke="#768094" stroke-linecap="round" stroke-linejoin="round"/>
<path d="M260.594 192.631H266.079" stroke="#768094" stroke-linecap="round" stroke-linejoin="round"/>
<path d="M263.336 175.639V195.986" stroke="#768094" stroke-linecap="round" stroke-linejoin="round"/>
<path d="M273.752 195.987H252.918V198.521H273.752V195.987Z" fill="white" stroke="#768094" stroke-linecap="round" stroke-linejoin="round"/>
<path d="M255.621 201.612V208.716" stroke="#768094" stroke-linecap="round" stroke-linejoin="round"/>
<path d="M258.703 201.612V208.716" stroke="#768094" stroke-linecap="round" stroke-linejoin="round"/>
<path d="M261.793 201.612V208.716" stroke="#768094" stroke-linecap="round" stroke-linejoin="round"/>
<path d="M264.875 201.612V208.716" stroke="#768094" stroke-linecap="round" stroke-linejoin="round"/>
<path d="M267.961 201.612V208.716" stroke="#768094" stroke-linecap="round" stroke-linejoin="round"/>
<path d="M271.051 201.612V208.716" stroke="#768094" stroke-linecap="round" stroke-linejoin="round"/>
<path d="M312.66 167.184C308.435 167.184 304.879 170.572 304.879 174.749V198.525H320.308V174.749C320.308 170.572 316.885 167.184 312.66 167.184Z" fill="white" stroke="#768094" stroke-linecap="round" stroke-linejoin="round"/>
<path d="M312.616 215.606C311.027 215.606 309.735 216.878 309.735 218.453H309.688V227.407H315.497V218.453C315.497 216.878 314.205 215.606 312.616 215.606Z" fill="white" stroke="#768094" stroke-linecap="round" stroke-linejoin="round"/>
<path d="M312.594 175.639C311.079 175.639 309.852 176.864 309.852 178.375V192.439H315.336V178.375C315.336 176.864 314.109 175.639 312.594 175.639Z" fill="white" stroke="#768094" stroke-linecap="round" stroke-linejoin="round"/>
<path d="M309.852 179.61H315.331" stroke="#768094" stroke-linecap="round" stroke-linejoin="round"/>
<path d="M309.852 182.866H315.331" stroke="#768094" stroke-linecap="round" stroke-linejoin="round"/>
<path d="M309.852 186.12H315.331" stroke="#768094" stroke-linecap="round" stroke-linejoin="round"/>
<path d="M309.852 189.375H315.331" stroke="#768094" stroke-linecap="round" stroke-linejoin="round"/>
<path d="M312.594 175.639V192.434" stroke="#768094" stroke-linecap="round" stroke-linejoin="round"/>
<path d="M320.308 195.987H304.879V198.521H320.308V195.987Z" fill="white" stroke="#768094" stroke-linecap="round" stroke-linejoin="round"/>
<path d="M304.879 201.61V208.714" stroke="#768094" stroke-linecap="round" stroke-linejoin="round"/>
<path d="M307.969 201.61V208.714" stroke="#768094" stroke-linecap="round" stroke-linejoin="round"/>
<path d="M311.051 201.61V208.714" stroke="#768094" stroke-linecap="round" stroke-linejoin="round"/>
<path d="M314.137 201.61V208.714" stroke="#768094" stroke-linecap="round" stroke-linejoin="round"/>
<path d="M317.219 201.61V208.714" stroke="#768094" stroke-linecap="round" stroke-linejoin="round"/>
<path d="M320.309 201.61V208.714" stroke="#768094" stroke-linecap="round" stroke-linejoin="round"/>
<path d="M289.617 167.184C285.392 167.184 281.836 170.572 281.836 174.749V198.525H297.265V174.749C297.265 170.572 293.842 167.184 289.617 167.184Z" fill="white" stroke="#768094" stroke-linecap="round" stroke-linejoin="round"/>
<path d="M289.577 215.606C287.988 215.606 286.696 216.878 286.696 218.453H286.648V227.407H292.458V218.453C292.458 216.878 291.166 215.606 289.577 215.606Z" fill="white" stroke="#768094" stroke-linecap="round" stroke-linejoin="round"/>
<path d="M289.551 175.639C288.036 175.639 286.809 176.864 286.809 178.375V192.439H292.293V178.375C292.293 176.864 291.066 175.639 289.551 175.639Z" fill="white" stroke="#768094" stroke-linecap="round" stroke-linejoin="round"/>
<path d="M286.809 179.61H292.293" stroke="#768094" stroke-linecap="round" stroke-linejoin="round"/>
<path d="M286.809 182.866H292.293" stroke="#768094" stroke-linecap="round" stroke-linejoin="round"/>
<path d="M286.809 186.12H292.293" stroke="#768094" stroke-linecap="round" stroke-linejoin="round"/>
<path d="M286.809 189.375H292.293" stroke="#768094" stroke-linecap="round" stroke-linejoin="round"/>
<path d="M289.551 175.639V192.434" stroke="#768094" stroke-linecap="round" stroke-linejoin="round"/>
<path d="M297.273 195.987H281.844V198.521H297.273V195.987Z" fill="white" stroke="#768094" stroke-linecap="round" stroke-linejoin="round"/>
<path d="M281.844 201.612V208.716" stroke="#768094" stroke-linecap="round" stroke-linejoin="round"/>
<path d="M284.926 201.612V208.716" stroke="#768094" stroke-linecap="round" stroke-linejoin="round"/>
<path d="M288.016 201.612V208.716" stroke="#768094" stroke-linecap="round" stroke-linejoin="round"/>
<path d="M291.098 201.612V208.716" stroke="#768094" stroke-linecap="round" stroke-linejoin="round"/>
<path d="M294.184 201.612V208.716" stroke="#768094" stroke-linecap="round" stroke-linejoin="round"/>
<path d="M297.273 201.612V208.716" stroke="#768094" stroke-linecap="round" stroke-linejoin="round"/>
<path d="M278.545 218.607C278.545 210.719 272.475 204.251 264.742 203.583C264.206 202.486 262.638 202.486 262.101 203.583C254.368 204.251 248.298 210.719 248.298 218.607H247.055V244.822H279.783V218.607H278.54H278.545Z" fill="white" stroke="#768094" stroke-linecap="round" stroke-linejoin="round"/>
<path d="M263.424 218.008C258.593 218.008 254.676 221.581 254.676 225.981V244.817H272.172V225.981C272.172 221.576 268.255 218.008 263.424 218.008Z" fill="white" stroke="#768094" stroke-linecap="round" stroke-linejoin="round"/>
<path d="M263.423 222.875C261.271 222.875 259.527 224.466 259.527 226.427V244.823H267.314V226.427C267.314 224.466 265.57 222.875 263.418 222.875H263.423Z" fill="white" stroke="#768094" stroke-linecap="round" stroke-linejoin="round"/>
<path d="M263.423 226.444C262.557 226.444 261.855 227.085 261.855 227.875V244.823H264.991V227.875C264.991 227.085 264.29 226.444 263.423 226.444Z" fill="white" stroke="#768094" stroke-linecap="round" stroke-linejoin="round"/>
<path d="M359.063 179.696H324.203V205.163H359.063V179.696Z" fill="white" stroke="#768094" stroke-linecap="round" stroke-linejoin="round"/>
<path d="M324.203 197.02V205.163H359.058V197.02" fill="white"/>
<path d="M324.203 197.02V205.163H359.058V197.02" stroke="#768094" stroke-linecap="round" stroke-linejoin="round"/>
<path d="M359.063 205.163H324.203V208.714H359.063V205.163Z" fill="white" stroke="#768094" stroke-linecap="round" stroke-linejoin="round"/>
<path d="M359.063 208.715H324.203V244.822H359.063V208.715Z" fill="white" stroke="#768094" stroke-linecap="round" stroke-linejoin="round"/>
<path d="M190.886 205.163H225.746V179.695H190.886V205.163Z" fill="white" stroke="#768094" stroke-linecap="round" stroke-linejoin="round"/>
<path d="M225.747 197.02V205.163H190.887V197.02" fill="white"/>
<path d="M225.747 197.02V205.163H190.887V197.02" stroke="#768094" stroke-linecap="round" stroke-linejoin="round"/>
<path d="M190.886 208.715H225.746V205.163H190.886V208.715Z" fill="white" stroke="#768094" stroke-linecap="round" stroke-linejoin="round"/>
<path d="M190.886 244.823H225.746V208.716H190.886V244.823Z" fill="white" stroke="#768094" stroke-linecap="round" stroke-linejoin="round"/>
<g clip-path="url(#clip1_205_72)">
<path d="M332.957 198.732H303.391L315.205 157.165H321.137L332.957 198.732Z" fill="white" stroke="#768094" stroke-linecap="round" stroke-linejoin="round"/>
<path d="M321.142 157.166H315.211L318.177 146.749L321.142 157.166Z" fill="white" stroke="#768094" stroke-linecap="round" stroke-linejoin="round"/>
<path d="M321.784 144.086C321.784 146.074 320.168 147.686 318.175 147.686C316.182 147.686 314.566 146.074 314.566 144.086C314.566 142.098 316.182 139.76 318.175 139.76C320.168 139.76 321.784 142.098 321.784 144.086Z" fill="white" stroke="#768094" stroke-linecap="round" stroke-linejoin="round"/>
<path d="M318.176 139.761V125.262" stroke="#768094" stroke-linecap="round" stroke-linejoin="round"/>
<path d="M315.211 130.145H321.142" stroke="#768094" stroke-linecap="round" stroke-linejoin="round"/>
<path d="M417.692 28.9285C417.554 27.3063 416.241 26.4421 414.987 25.6735C413.956 25.0373 412.999 24.2262 412.367 23.1871C412.053 22.6729 411.506 21.7611 411.533 21.1567C411.559 21.7558 411.012 22.6729 410.698 23.1871C410.066 24.2315 409.109 25.0426 408.078 25.6735C406.824 26.4474 405.511 27.3116 405.373 28.9285C405.256 30.2856 405.909 31.876 407.313 32.3001H415.753C417.15 31.876 417.804 30.2856 417.692 28.9285Z" fill="white" stroke="#768094" stroke-linecap="round" stroke-linejoin="round"/>
<path d="M414.805 28.9285C414.731 27.3063 414.035 26.4421 413.37 25.6735C412.823 25.0373 412.313 24.2262 411.978 23.1871C411.813 22.6729 411.521 21.7611 411.537 21.1567C411.553 21.7558 411.26 22.6729 411.096 23.1871C410.761 24.2315 410.25 25.0426 409.703 25.6735C409.039 26.4474 408.337 27.3116 408.268 28.9285C408.21 30.2856 408.555 31.876 409.299 32.3001H413.785C414.529 31.876 414.874 30.2856 414.816 28.9285H414.805Z" fill="white" stroke="#768094" stroke-linecap="round" stroke-linejoin="round"/>
<path d="M415.755 32.2993H407.315C407.315 32.2993 406.677 33.174 406.555 34.2555H416.515C416.392 33.174 415.755 32.2993 415.755 32.2993Z" fill="white" stroke="#768094" stroke-linecap="round" stroke-linejoin="round"/>
<path d="M411.535 21.1511V17.647" stroke="#768094" stroke-linecap="round" stroke-linejoin="round"/>
<path d="M410.359 18.9673H412.709" stroke="#768094" stroke-linecap="round" stroke-linejoin="round"/>
<path d="M432.44 106.209H391.824V118.387H432.44V106.209Z" fill="white" stroke="#768094" stroke-linecap="round" stroke-linejoin="round"/>
<path d="M418.082 112.126C418.082 109.025 415.696 106.475 412.65 106.215C412.438 105.786 411.821 105.786 411.614 106.215C408.568 106.48 406.182 109.025 406.182 112.126H405.363V122.543H418.9V112.126H418.082Z" fill="white" stroke="#768094" stroke-linecap="round" stroke-linejoin="round"/>
<path d="M431.621 112.126C431.621 109.025 429.234 106.475 426.189 106.215C425.976 105.786 425.36 105.786 425.153 106.215C422.107 106.48 419.721 109.025 419.721 112.126H418.902V122.543H432.439V112.126H431.621Z" fill="white" stroke="#768094" stroke-linecap="round" stroke-linejoin="round"/>
<path d="M404.546 112.126C404.546 109.025 402.16 106.475 399.115 106.215C398.902 105.786 398.286 105.786 398.078 106.215C395.033 106.48 392.647 109.025 392.647 112.126H391.828V122.543H405.365V112.126H404.546Z" fill="white" stroke="#768094" stroke-linecap="round" stroke-linejoin="round"/>
<path d="M413.953 111.809H410.312V118.892H413.953V111.809Z" fill="white" stroke="#768094" stroke-linecap="round" stroke-linejoin="round"/>
<path d="M427.496 111.809H423.855V118.892H427.496V111.809Z" fill="white" stroke="#768094" stroke-linecap="round" stroke-linejoin="round"/>
<path d="M400.414 111.809H396.773V118.892H400.414V111.809Z" fill="white" stroke="#768094" stroke-linecap="round" stroke-linejoin="round"/>
<path d="M432.44 122.538H391.824L380.121 130.145H444.149L432.44 122.538Z" fill="white" stroke="#768094" stroke-linecap="round" stroke-linejoin="round"/>
<path d="M419.972 122.538H404.299L399.781 130.145H424.485L419.972 122.538Z" fill="white" stroke="#768094" stroke-linecap="round" stroke-linejoin="round"/>
<path d="M442.294 132.819H381.977V154.517H442.294V132.819Z" fill="white" stroke="#768094" stroke-linecap="round" stroke-linejoin="round"/>
<path d="M442.294 132.819H381.977V154.517H442.294V132.819Z" fill="white" stroke="#768094" stroke-linecap="round" stroke-linejoin="round"/>
<path d="M428.037 132.819H396.238V154.517H428.037V132.819Z" fill="white" stroke="#768094" stroke-linecap="round" stroke-linejoin="round"/>
<path d="M380.121 130.147L381.976 132.819H442.294L444.149 130.147H380.121Z" fill="white" stroke="#768094" stroke-linecap="round" stroke-linejoin="round"/>
<path d="M412.134 136.051C409.025 136.051 406.5 138.569 406.5 141.671V154.521H417.767V141.671C417.767 138.569 415.243 136.051 412.134 136.051Z" fill="white" stroke="#768094" stroke-linecap="round" stroke-linejoin="round"/>
<path d="M412.133 136.051V154.521" stroke="#768094" stroke-linecap="round" stroke-linejoin="round"/>
<path d="M406.5 144.209H417.767" stroke="#768094" stroke-linecap="round" stroke-linejoin="round"/>
<path d="M406.5 150.901H417.767" stroke="#768094" stroke-linecap="round" stroke-linejoin="round"/>
<path d="M389.071 136.051C386.823 136.051 385 138.569 385 141.671V154.521H393.148V141.671C393.148 138.569 391.325 136.051 389.076 136.051H389.071Z" fill="white" stroke="#768094" stroke-linecap="round" stroke-linejoin="round"/>
<path d="M389.07 136.051V154.521" stroke="#768094" stroke-linecap="round" stroke-linejoin="round"/>
<path d="M384.992 144.209H393.14" stroke="#768094" stroke-linecap="round" stroke-linejoin="round"/>
<path d="M384.992 150.901H393.14" stroke="#768094" stroke-linecap="round" stroke-linejoin="round"/>
<path d="M435.2 136.051C432.952 136.051 431.129 138.569 431.129 141.671V154.521H439.277V141.671C439.277 138.569 437.454 136.051 435.205 136.051H435.2Z" fill="white" stroke="#768094" stroke-linecap="round" stroke-linejoin="round"/>
<path d="M435.199 136.051V154.521" stroke="#768094" stroke-linecap="round" stroke-linejoin="round"/>
<path d="M431.121 144.209H439.269" stroke="#768094" stroke-linecap="round" stroke-linejoin="round"/>
<path d="M431.121 150.901H439.269" stroke="#768094" stroke-linecap="round" stroke-linejoin="round"/>
<path d="M461.198 161.372H361.965V244.825H461.198V161.372Z" fill="white" stroke="#768094" stroke-linecap="round" stroke-linejoin="round"/>
<path d="M581.027 161.37H461.199V244.823H581.027V161.37Z" fill="white" stroke="#768094" stroke-linecap="round" stroke-linejoin="round"/>
<path d="M582.484 157.167H447.992L449.443 161.37H581.028L582.484 157.167Z" fill="white" stroke="#768094" stroke-linecap="round" stroke-linejoin="round"/>
<path d="M360.508 157.166L443.382 138.797L461.803 157.166H360.508Z" fill="white" stroke="#768094" stroke-linecap="round" stroke-linejoin="round"/>
<path d="M443.387 138.797L461.808 157.166H582.486L564.065 138.797H443.387Z" fill="white" stroke="#768094" stroke-linecap="round" stroke-linejoin="round"/>
<path d="M462.648 157.167H360.508L361.964 161.37H461.197L462.648 157.167Z" fill="white" stroke="#768094" stroke-linecap="round" stroke-linejoin="round"/>
<path d="M455.018 141.215L447.992 138.798V121.881H455.018V141.215Z" fill="white" stroke="#768094" stroke-linecap="round" stroke-linejoin="round"/>
<path d="M463.737 121.881H455.016V141.221H463.737V121.881Z" fill="white" stroke="#768094" stroke-linecap="round" stroke-linejoin="round"/>
<path d="M447.992 121.882L455.863 115.838L463.74 121.882H447.992Z" fill="white" stroke="#768094" stroke-linecap="round" stroke-linejoin="round"/>
<path d="M377.162 167.732C376.333 167.17 375.052 166.2 374.536 165.256C374.026 166.2 372.74 167.17 371.911 167.732C370.146 168.67 368.945 170.521 368.945 172.652V186.297H380.117V172.652C380.117 170.521 378.916 168.67 377.151 167.732H377.162Z" fill="white" stroke="#768094" stroke-linecap="round" stroke-linejoin="round"/>
<path d="M368.953 172.651H380.13" stroke="#768094" stroke-linecap="round" stroke-linejoin="round"/>
<path d="M368.953 186.298L372.195 184.713H376.888L380.13 186.298H368.953Z" fill="white" stroke="#768094" stroke-linecap="round" stroke-linejoin="round"/>
<path d="M371.102 171.067H377.974" stroke="#768094" stroke-linecap="round" stroke-linejoin="round"/>
<path d="M376.891 177.672C376.891 176.384 375.838 175.334 374.547 175.334C373.255 175.334 372.203 176.384 372.203 177.672V184.712H376.891V177.672Z" fill="white" stroke="#768094" stroke-linecap="round" stroke-linejoin="round"/>
<path d="M374.543 175.334V184.712" stroke="#768094" stroke-linecap="round" stroke-linejoin="round"/>
<path d="M372.195 177.672H376.888" stroke="#768094" stroke-linecap="round" stroke-linejoin="round"/>
<path d="M372.195 180.647H376.888" stroke="#768094" stroke-linecap="round" stroke-linejoin="round"/>
<path d="M372.195 183.626H376.888" stroke="#768094" stroke-linecap="round" stroke-linejoin="round"/>
<path d="M388.333 167.732C387.503 167.17 386.223 166.2 385.707 165.256C385.197 166.2 383.911 167.17 383.087 167.732C381.322 168.67 380.121 170.521 380.121 172.652V186.297H391.293V172.652C391.293 170.521 390.092 168.67 388.327 167.732H388.333Z" fill="white" stroke="#768094" stroke-linecap="round" stroke-linejoin="round"/>
<path d="M380.129 172.651H391.301" stroke="#768094" stroke-linecap="round" stroke-linejoin="round"/>
<path d="M380.129 186.298L383.371 184.713H388.059L391.301 186.298H380.129Z" fill="white" stroke="#768094" stroke-linecap="round" stroke-linejoin="round"/>
<path d="M382.273 171.067H389.151" stroke="#768094" stroke-linecap="round" stroke-linejoin="round"/>
<path d="M388.059 177.672C388.059 176.384 387.006 175.334 385.715 175.334C384.423 175.334 383.371 176.384 383.371 177.672V184.712H388.059V177.672Z" fill="white" stroke="#768094" stroke-linecap="round" stroke-linejoin="round"/>
<path d="M385.715 175.334V184.712" stroke="#768094" stroke-linecap="round" stroke-linejoin="round"/>
<path d="M383.371 177.672H388.059" stroke="#768094" stroke-linecap="round" stroke-linejoin="round"/>
<path d="M383.371 180.647H388.059" stroke="#768094" stroke-linecap="round" stroke-linejoin="round"/>
<path d="M383.371 183.626H388.059" stroke="#768094" stroke-linecap="round" stroke-linejoin="round"/>
<path d="M408.192 167.732C407.363 167.17 406.082 166.2 405.572 165.256C405.061 166.2 403.775 167.17 402.946 167.732C401.182 168.67 399.98 170.521 399.98 172.652V186.297H411.152V172.652C411.152 170.521 409.951 168.67 408.187 167.732H408.192Z" fill="white" stroke="#768094" stroke-linecap="round" stroke-linejoin="round"/>
<path d="M399.98 172.651H411.152" stroke="#768094" stroke-linecap="round" stroke-linejoin="round"/>
<path d="M399.98 186.297L403.223 184.711H407.91L411.152 186.297H399.98Z" fill="white" stroke="#768094" stroke-linecap="round" stroke-linejoin="round"/>
<path d="M402.129 171.067H409.006" stroke="#768094" stroke-linecap="round" stroke-linejoin="round"/>
<path d="M407.91 177.672C407.91 176.384 406.858 175.334 405.566 175.334C404.275 175.334 403.223 176.384 403.223 177.672V184.712H407.91V177.672Z" fill="white" stroke="#768094" stroke-linecap="round" stroke-linejoin="round"/>
<path d="M405.566 175.334V184.712" stroke="#768094" stroke-linecap="round" stroke-linejoin="round"/>
<path d="M403.223 177.672H407.91" stroke="#768094" stroke-linecap="round" stroke-linejoin="round"/>
<path d="M403.223 180.647H407.91" stroke="#768094" stroke-linecap="round" stroke-linejoin="round"/>
<path d="M403.223 183.626H407.91" stroke="#768094" stroke-linecap="round" stroke-linejoin="round"/>
<path d="M419.365 167.732C418.536 167.17 417.255 166.2 416.74 165.256C416.229 166.2 414.943 167.17 414.114 167.732C412.35 168.67 411.148 170.521 411.148 172.652V186.297H422.32V172.652C422.32 170.521 421.119 168.67 419.355 167.732H419.365Z" fill="white" stroke="#768094" stroke-linecap="round" stroke-linejoin="round"/>
<path d="M411.156 172.651H422.333" stroke="#768094" stroke-linecap="round" stroke-linejoin="round"/>
<path d="M411.156 186.298L414.398 184.713H419.091L422.333 186.298H411.156Z" fill="white" stroke="#768094" stroke-linecap="round" stroke-linejoin="round"/>
<path d="M413.305 171.067H420.177" stroke="#768094" stroke-linecap="round" stroke-linejoin="round"/>
<path d="M419.094 177.672C419.094 176.384 418.042 175.334 416.75 175.334C415.459 175.334 414.406 176.384 414.406 177.672V184.712H419.094V177.672Z" fill="white" stroke="#768094" stroke-linecap="round" stroke-linejoin="round"/>
<path d="M416.746 175.334V184.712" stroke="#768094" stroke-linecap="round" stroke-linejoin="round"/>
<path d="M414.398 177.672H419.091" stroke="#768094" stroke-linecap="round" stroke-linejoin="round"/>
<path d="M414.398 180.647H419.091" stroke="#768094" stroke-linecap="round" stroke-linejoin="round"/>
<path d="M414.398 183.626H419.091" stroke="#768094" stroke-linecap="round" stroke-linejoin="round"/>
<path d="M439.221 167.732C438.392 167.17 437.111 166.2 436.595 165.256C436.085 166.2 434.799 167.17 433.97 167.732C432.205 168.67 431.004 170.521 431.004 172.652V186.297H442.176V172.652C442.176 170.521 440.975 168.67 439.21 167.732H439.221Z" fill="white" stroke="#768094" stroke-linecap="round" stroke-linejoin="round"/>
<path d="M431.012 172.651H442.189" stroke="#768094" stroke-linecap="round" stroke-linejoin="round"/>
<path d="M431.012 186.298L434.254 184.713H438.947L442.189 186.298H431.012Z" fill="white" stroke="#768094" stroke-linecap="round" stroke-linejoin="round"/>
<path d="M433.16 171.067H440.032" stroke="#768094" stroke-linecap="round" stroke-linejoin="round"/>
<path d="M438.949 177.672C438.949 176.384 437.897 175.334 436.606 175.334C435.314 175.334 434.262 176.384 434.262 177.672V184.712H438.949V177.672Z" fill="white" stroke="#768094" stroke-linecap="round" stroke-linejoin="round"/>
<path d="M436.602 175.334V184.712" stroke="#768094" stroke-linecap="round" stroke-linejoin="round"/>
<path d="M434.254 177.672H438.947" stroke="#768094" stroke-linecap="round" stroke-linejoin="round"/>
<path d="M434.254 180.647H438.947" stroke="#768094" stroke-linecap="round" stroke-linejoin="round"/>
<path d="M434.254 183.626H438.947" stroke="#768094" stroke-linecap="round" stroke-linejoin="round"/>
<path d="M450.4 167.732C449.571 167.17 448.29 166.2 447.775 165.256C447.265 166.2 445.978 167.17 445.149 167.732C443.385 168.67 442.184 170.521 442.184 172.652V186.297H453.355V172.652C453.355 170.521 452.154 168.67 450.39 167.732H450.4Z" fill="white" stroke="#768094" stroke-linecap="round" stroke-linejoin="round"/>
<path d="M442.191 172.651H453.363" stroke="#768094" stroke-linecap="round" stroke-linejoin="round"/>
<path d="M442.191 186.298L445.433 184.713H450.121L453.363 186.298H442.191Z" fill="white" stroke="#768094" stroke-linecap="round" stroke-linejoin="round"/>
<path d="M444.336 171.067H451.213" stroke="#768094" stroke-linecap="round" stroke-linejoin="round"/>
<path d="M450.121 177.672C450.121 176.384 449.069 175.334 447.777 175.334C446.486 175.334 445.434 176.384 445.434 177.672V184.712H450.121V177.672Z" fill="white" stroke="#768094" stroke-linecap="round" stroke-linejoin="round"/>
<path d="M447.777 175.334V184.712" stroke="#768094" stroke-linecap="round" stroke-linejoin="round"/>
<path d="M445.434 177.672H450.121" stroke="#768094" stroke-linecap="round" stroke-linejoin="round"/>
<path d="M445.434 180.647H450.121" stroke="#768094" stroke-linecap="round" stroke-linejoin="round"/>
<path d="M445.434 183.626H450.121" stroke="#768094" stroke-linecap="round" stroke-linejoin="round"/>
<path d="M439.221 194.611C438.392 194.049 437.111 193.079 436.595 192.135C436.085 193.079 434.799 194.049 433.97 194.611C432.205 195.549 431.004 197.399 431.004 199.531V213.176H442.176V199.531C442.176 197.399 440.975 195.549 439.21 194.611H439.221Z" fill="white" stroke="#768094" stroke-linecap="round" stroke-linejoin="round"/>
<path d="M431.012 199.53H442.189" stroke="#768094" stroke-linecap="round" stroke-linejoin="round"/>
<path d="M431.012 213.177L434.254 211.592H438.947L442.189 213.177H431.012Z" fill="white" stroke="#768094" stroke-linecap="round" stroke-linejoin="round"/>
<path d="M433.16 197.946H440.032" stroke="#768094" stroke-linecap="round" stroke-linejoin="round"/>
<path d="M438.949 204.551C438.949 203.263 437.897 202.213 436.606 202.213C435.314 202.213 434.262 203.263 434.262 204.551V211.591H438.949V204.551Z" fill="white" stroke="#768094" stroke-linecap="round" stroke-linejoin="round"/>
<path d="M436.602 202.213V211.591" stroke="#768094" stroke-linecap="round" stroke-linejoin="round"/>
<path d="M434.254 204.551H438.947" stroke="#768094" stroke-linecap="round" stroke-linejoin="round"/>
<path d="M434.254 207.526H438.947" stroke="#768094" stroke-linecap="round" stroke-linejoin="round"/>
<path d="M434.254 210.505H438.947" stroke="#768094" stroke-linecap="round" stroke-linejoin="round"/>
<path d="M450.4 194.611C449.571 194.049 448.29 193.079 447.775 192.135C447.265 193.079 445.978 194.049 445.149 194.611C443.385 195.549 442.184 197.399 442.184 199.531V213.176H453.355V199.531C453.355 197.399 452.154 195.549 450.39 194.611H450.4Z" fill="white" stroke="#768094" stroke-linecap="round" stroke-linejoin="round"/>
<path d="M442.191 199.53H453.363" stroke="#768094" stroke-linecap="round" stroke-linejoin="round"/>
<path d="M442.191 213.177L445.433 211.592H450.121L453.363 213.177H442.191Z" fill="white" stroke="#768094" stroke-linecap="round" stroke-linejoin="round"/>
<path d="M444.336 197.946H451.213" stroke="#768094" stroke-linecap="round" stroke-linejoin="round"/>
<path d="M450.121 204.551C450.121 203.263 449.069 202.213 447.777 202.213C446.486 202.213 445.434 203.263 445.434 204.551V211.591H450.121V204.551Z" fill="white" stroke="#768094" stroke-linecap="round" stroke-linejoin="round"/>
<path d="M447.777 202.213V211.591" stroke="#768094" stroke-linecap="round" stroke-linejoin="round"/>
<path d="M445.434 204.551H450.121" stroke="#768094" stroke-linecap="round" stroke-linejoin="round"/>
<path d="M445.434 207.526H450.121" stroke="#768094" stroke-linecap="round" stroke-linejoin="round"/>
<path d="M445.434 210.505H450.121" stroke="#768094" stroke-linecap="round" stroke-linejoin="round"/>
<path d="M444.809 222.808C443.98 222.246 442.699 221.276 442.184 220.333C441.673 221.276 440.387 222.246 439.563 222.808C437.799 223.747 436.598 225.597 436.598 227.728V241.373H447.769V227.728C447.769 225.597 446.568 223.747 444.804 222.808H444.809Z" fill="white" stroke="#768094" stroke-linecap="round" stroke-linejoin="round"/>
<path d="M436.605 227.733H447.777" stroke="#768094" stroke-linecap="round" stroke-linejoin="round"/>
<path d="M436.605 241.378L439.847 239.788H444.535L447.777 241.378H436.605Z" fill="white" stroke="#768094" stroke-linecap="round" stroke-linejoin="round"/>
<path d="M438.75 226.147H445.627" stroke="#768094" stroke-linecap="round" stroke-linejoin="round"/>
<path d="M444.535 232.749C444.535 231.46 443.483 230.411 442.192 230.411C440.9 230.411 439.848 231.46 439.848 232.749V239.789H444.535V232.749Z" fill="white" stroke="#768094" stroke-linecap="round" stroke-linejoin="round"/>
<path d="M442.191 230.411V239.789" stroke="#768094" stroke-linecap="round" stroke-linejoin="round"/>
<path d="M439.848 232.749H444.535" stroke="#768094" stroke-linecap="round" stroke-linejoin="round"/>
<path d="M439.848 235.727H444.535" stroke="#768094" stroke-linecap="round" stroke-linejoin="round"/>
<path d="M439.848 238.708H444.535" stroke="#768094" stroke-linecap="round" stroke-linejoin="round"/>
<path d="M479.391 167.818C478.562 167.256 477.281 166.286 476.766 165.342C476.255 166.286 474.969 167.256 474.145 167.818C472.381 168.756 471.18 170.606 471.18 172.738V186.383H482.351V172.738C482.351 170.606 481.15 168.756 479.386 167.818H479.391Z" fill="white" stroke="#768094" stroke-linecap="round" stroke-linejoin="round"/>
<path d="M471.18 172.743H482.351" stroke="#768094" stroke-linecap="round" stroke-linejoin="round"/>
<path d="M471.18 186.388L474.422 184.797H479.109L482.351 186.388H471.18Z" fill="white" stroke="#768094" stroke-linecap="round" stroke-linejoin="round"/>
<path d="M473.332 171.159H480.204" stroke="#768094" stroke-linecap="round" stroke-linejoin="round"/>
<path d="M479.11 177.758C479.11 176.47 478.057 175.42 476.766 175.42C475.474 175.42 474.422 176.47 474.422 177.758V184.798H479.11V177.758Z" fill="white" stroke="#768094" stroke-linecap="round" stroke-linejoin="round"/>
<path d="M476.766 175.42V184.798" stroke="#768094" stroke-linecap="round" stroke-linejoin="round"/>
<path d="M474.422 177.758H479.11" stroke="#768094" stroke-linecap="round" stroke-linejoin="round"/>
<path d="M474.422 180.737H479.11" stroke="#768094" stroke-linecap="round" stroke-linejoin="round"/>
<path d="M474.422 183.717H479.11" stroke="#768094" stroke-linecap="round" stroke-linejoin="round"/>
<path d="M413.782 222.808C412.953 222.246 411.672 221.276 411.156 220.333C410.646 221.276 409.36 222.246 408.536 222.808C406.771 223.747 405.57 225.597 405.57 227.728V241.373H416.742V227.728C416.742 225.597 415.541 223.747 413.776 222.808H413.782Z" fill="white" stroke="#768094" stroke-linecap="round" stroke-linejoin="round"/>
<path d="M405.57 227.733H416.747" stroke="#768094" stroke-linecap="round" stroke-linejoin="round"/>
<path d="M405.57 241.378L408.812 239.788H413.5L416.747 241.378H405.57Z" fill="white" stroke="#768094" stroke-linecap="round" stroke-linejoin="round"/>
<path d="M407.723 226.147H414.595" stroke="#768094" stroke-linecap="round" stroke-linejoin="round"/>
<path d="M413.5 232.749C413.5 231.46 412.448 230.411 411.156 230.411C409.865 230.411 408.812 231.46 408.812 232.749V239.789H413.5V232.749Z" fill="white" stroke="#768094" stroke-linecap="round" stroke-linejoin="round"/>
<path d="M411.156 230.411V239.789" stroke="#768094" stroke-linecap="round" stroke-linejoin="round"/>
<path d="M408.812 232.749H413.5" stroke="#768094" stroke-linecap="round" stroke-linejoin="round"/>
<path d="M408.812 235.727H413.5" stroke="#768094" stroke-linecap="round" stroke-linejoin="round"/>
<path d="M408.812 238.708H413.5" stroke="#768094" stroke-linecap="round" stroke-linejoin="round"/>
<path d="M413.782 194.611C412.953 194.049 411.672 193.079 411.156 192.135C410.646 193.079 409.36 194.049 408.536 194.611C406.771 195.549 405.57 197.399 405.57 199.531V213.176H416.742V199.531C416.742 197.399 415.541 195.549 413.776 194.611H413.782Z" fill="white" stroke="#768094" stroke-linecap="round" stroke-linejoin="round"/>
<path d="M405.57 199.53H416.747" stroke="#768094" stroke-linecap="round" stroke-linejoin="round"/>
<path d="M405.57 213.175L408.812 211.59H413.5L416.747 213.175H405.57Z" fill="white" stroke="#768094" stroke-linecap="round" stroke-linejoin="round"/>
<path d="M407.723 197.946H414.595" stroke="#768094" stroke-linecap="round" stroke-linejoin="round"/>
<path d="M413.5 204.551C413.5 203.263 412.448 202.213 411.156 202.213C409.865 202.213 408.812 203.263 408.812 204.551V211.591H413.5V204.551Z" fill="white" stroke="#768094" stroke-linecap="round" stroke-linejoin="round"/>
<path d="M411.156 202.213V211.591" stroke="#768094" stroke-linecap="round" stroke-linejoin="round"/>
<path d="M408.812 204.551H413.5" stroke="#768094" stroke-linecap="round" stroke-linejoin="round"/>
<path d="M408.812 207.526H413.5" stroke="#768094" stroke-linecap="round" stroke-linejoin="round"/>
<path d="M408.812 210.505H413.5" stroke="#768094" stroke-linecap="round" stroke-linejoin="round"/>
<path d="M409.915 149.315C407.013 149.315 404.664 151.658 404.664 154.553H415.166C415.166 151.658 412.817 149.315 409.915 149.315Z" fill="white" stroke="#768094" stroke-linecap="round" stroke-linejoin="round"/>
<path d="M362.577 206.141V195.846H319.395V244.825H400.254V206.141H362.577Z" fill="white" stroke="#768094" stroke-linecap="round" stroke-linejoin="round"/>
<path d="M319.395 195.846H280.379V244.825H319.395V195.846Z" fill="white" stroke="#768094" stroke-linecap="round" stroke-linejoin="round"/>
<path d="M319.394 195.845L314.605 189.616H379.898L400.254 206.14H362.577V195.845H319.394Z" fill="white" stroke="#768094" stroke-linecap="round" stroke-linejoin="round"/>
<path d="M314.606 189.616L280.379 195.845H319.395L314.606 189.616Z" fill="white" stroke="#768094" stroke-linecap="round" stroke-linejoin="round"/>
<path d="M346.297 230.256C346.297 225.506 342.422 221.641 337.66 221.641C332.898 221.641 329.023 225.506 329.023 230.256V244.824H346.291V230.256H346.297Z" fill="white" stroke="#768094" stroke-linecap="round" stroke-linejoin="round"/>
<path d="M362.577 206.141H279.969" stroke="#768094" stroke-linecap="round" stroke-linejoin="round"/>
<path d="M464.258 144.209L478.098 157.166" stroke="#768094" stroke-linecap="round" stroke-linejoin="round"/>
<path d="M473.285 144.209L487.125 157.166" stroke="#768094" stroke-linecap="round" stroke-linejoin="round"/>
<path d="M482.309 144.209L496.148 157.166" stroke="#768094" stroke-linecap="round" stroke-linejoin="round"/>
<path d="M491.332 144.209L505.172 157.166" stroke="#768094" stroke-linecap="round" stroke-linejoin="round"/>
<path d="M500.359 144.209L514.199 157.166" stroke="#768094" stroke-linecap="round" stroke-linejoin="round"/>
<path d="M416.359 42.5841V34.2505H406.707V42.5841L393.883 105.887H429.184L416.359 42.5841Z" fill="white" stroke="#768094" stroke-linecap="round" stroke-linejoin="round"/>
<path d="M414.156 42.5841V34.2505H408.905V42.5841L401.938 105.887H421.124L414.156 42.5841Z" fill="white" stroke="#768094" stroke-linecap="round" stroke-linejoin="round"/>
</g>
<path d="M150.762 200.393H93.6016V208.239H150.762V200.393Z" fill="white" stroke="#768094" stroke-linecap="round" stroke-linejoin="round"/>
<path d="M150.762 151.6H93.6016V200.393H150.762V151.6Z" fill="white" stroke="#768094" stroke-linecap="round" stroke-linejoin="round"/>
<path d="M150.762 231.788H93.6016V244.871H141.493L150.762 231.788Z" fill="white" stroke="#768094" stroke-linecap="round" stroke-linejoin="round"/>
<path d="M25.6746 192.542H-5.19922V244.871H25.6746V192.542Z" fill="white" stroke="#768094" stroke-linecap="round" stroke-linejoin="round"/>
<path d="M198.769 244.219L169.926 231.788V223.942L198.769 236.368V244.219Z" fill="white" stroke="#768094" stroke-linecap="round" stroke-linejoin="round"/>
<path d="M46.7469 151.6H-10.4141V200.393H46.7469V151.6Z" fill="white" stroke="#768094" stroke-linecap="round" stroke-linejoin="round"/>
<path d="M95.182 141.803H24.1016V192.542H95.182V141.803Z" fill="white" stroke="#768094" stroke-linecap="round" stroke-linejoin="round"/>
<path d="M93.6006 192.542H25.6719V244.871H93.6006V192.542Z" fill="white" stroke="#768094" stroke-linecap="round" stroke-linejoin="round"/>
<path d="M63.8532 152.873H57.1459L53.6328 148.414V133.756H67.3663V148.414L63.8532 152.873Z" fill="white" stroke="#768094" stroke-linecap="round" stroke-linejoin="round"/>
<path d="M63.8479 133.756H57.1406V152.873H63.8479V133.756Z" fill="white" stroke="#768094" stroke-linecap="round" stroke-linejoin="round"/>
<path d="M64.5943 129.393H56.3988L51.1797 133.666H69.8135L64.5943 129.393Z" fill="white" stroke="#768094" stroke-linecap="round" stroke-linejoin="round"/>
<path d="M64.5886 120.848H56.3984V129.394H64.5886V120.848Z" fill="white" stroke="#768094" stroke-linecap="round" stroke-linejoin="round"/>
<path d="M65.0517 118.881H55.9474C55.9474 118.881 55.2565 120.366 55.1289 121.532H65.8755C65.7479 120.366 65.057 118.881 65.057 118.881H65.0517Z" fill="white" stroke="#768094" stroke-linecap="round" stroke-linejoin="round"/>
<path d="M60.4961 110.611V95.4438" stroke="#768094" stroke-linecap="round" stroke-linejoin="round"/>
<path d="M57.543 98.772H63.4531" stroke="#768094" stroke-linecap="round" stroke-linejoin="round"/>
<path d="M67.1405 115.245C66.9917 113.495 65.5726 112.562 64.2227 111.73C63.1119 111.046 62.0808 110.171 61.3952 109.047C61.0604 108.496 60.4651 107.505 60.497 106.858C60.5289 107.505 59.9336 108.496 59.5988 109.047C58.9132 110.171 57.8821 111.046 56.7713 111.73C55.4213 112.562 54.0023 113.495 53.8535 115.245C53.7312 116.708 54.4328 118.425 55.9422 118.881H65.0465C66.5559 118.425 67.2628 116.708 67.1352 115.245H67.1405Z" fill="white" stroke="#768094" stroke-linecap="round" stroke-linejoin="round"/>
<path d="M64.0249 115.245C63.9452 113.495 63.1905 112.562 62.473 111.73C61.8831 111.046 61.3356 110.171 60.9689 109.047C60.7882 108.496 60.4746 107.505 60.4906 106.858C60.5065 107.505 60.1929 108.496 60.0122 109.047C59.6508 110.171 59.0981 111.046 58.5081 111.73C57.7906 112.562 57.0359 113.495 56.9562 115.245C56.8924 116.708 57.2645 118.425 58.067 118.881H62.9088C63.7114 118.425 64.0834 116.708 64.0196 115.245H64.0249Z" fill="white" stroke="#768094" stroke-linecap="round" stroke-linejoin="round"/>
<path d="M24.1016 159.563H95.1767" stroke="#768094" stroke-linecap="round" stroke-linejoin="round"/>
<path d="M29.6914 162.75V188.563" stroke="#768094" stroke-linecap="round" stroke-linejoin="round"/>
<path d="M35.7578 175.659V192.543" stroke="#768094" stroke-linecap="round" stroke-linejoin="round"/>
<path d="M35.7578 162.749V169.842" stroke="#768094" stroke-linecap="round" stroke-linejoin="round"/>
<path d="M41.832 162.749V188.561" stroke="#768094" stroke-linecap="round" stroke-linejoin="round"/>
<path d="M47.8984 159.643V188.562" stroke="#768094" stroke-linecap="round" stroke-linejoin="round"/>
<path d="M53.9688 162.749V188.561" stroke="#768094" stroke-linecap="round" stroke-linejoin="round"/>
<path d="M60.0391 162.749V192.542" stroke="#768094" stroke-linecap="round" stroke-linejoin="round"/>
<path d="M66.1094 159.643V188.562" stroke="#768094" stroke-linecap="round" stroke-linejoin="round"/>
<path d="M72.1797 162.749V192.542" stroke="#768094" stroke-linecap="round" stroke-linejoin="round"/>
<path d="M78.2461 162.749V188.561" stroke="#768094" stroke-linecap="round" stroke-linejoin="round"/>
<path d="M84.3164 177.647V188.562" stroke="#768094" stroke-linecap="round" stroke-linejoin="round"/>
<path d="M84.3164 162.749V173.187" stroke="#768094" stroke-linecap="round" stroke-linejoin="round"/>
<path d="M90.3867 162.749V188.561" stroke="#768094" stroke-linecap="round" stroke-linejoin="round"/>
<path d="M95.182 189.913H24.1016V192.542H95.182V189.913Z" fill="white" stroke="#768094" stroke-linecap="round" stroke-linejoin="round"/>
<path d="M28.2979 195.16C28.2979 196.608 27.1233 197.779 25.6724 197.779C24.2215 197.779 23.0469 196.608 23.0469 195.16C23.0469 193.713 24.2215 192.542 25.6724 192.542C27.1233 192.542 28.2979 193.713 28.2979 195.16Z" fill="white" stroke="#768094" stroke-linecap="round" stroke-linejoin="round"/>
<path d="M28.2979 200.393C28.2979 201.84 27.1233 203.012 25.6724 203.012C24.2214 203.012 23.0469 201.84 23.0469 200.393C23.0469 198.946 24.2214 197.774 25.6724 197.774C27.1233 197.774 28.2979 198.946 28.2979 200.393Z" fill="white" stroke="#768094" stroke-linecap="round" stroke-linejoin="round"/>
<path d="M28.2979 205.625C28.2979 207.072 27.1233 208.244 25.6724 208.244C24.2214 208.244 23.0469 207.072 23.0469 205.625C23.0469 204.178 24.2214 203.006 25.6724 203.006C27.1233 203.006 28.2979 204.178 28.2979 205.625Z" fill="white" stroke="#768094" stroke-linecap="round" stroke-linejoin="round"/>
<path d="M28.2979 210.858C28.2979 212.305 27.1233 213.476 25.6724 213.476C24.2214 213.476 23.0469 212.305 23.0469 210.858C23.0469 209.41 24.2214 208.239 25.6724 208.239C27.1233 208.239 28.2979 209.41 28.2979 210.858Z" fill="white" stroke="#768094" stroke-linecap="round" stroke-linejoin="round"/>
<path d="M28.2979 216.09C28.2979 217.537 27.1233 218.709 25.6724 218.709C24.2214 218.709 23.0469 217.537 23.0469 216.09C23.0469 214.643 24.2214 213.471 25.6724 213.471C27.1233 213.471 28.2979 214.643 28.2979 216.09Z" fill="white" stroke="#768094" stroke-linecap="round" stroke-linejoin="round"/>
<path d="M28.2979 221.322C28.2979 222.769 27.1233 223.941 25.6724 223.941C24.2214 223.941 23.0469 222.769 23.0469 221.322C23.0469 219.875 24.2214 218.703 25.6724 218.703C27.1233 218.703 28.2979 219.875 28.2979 221.322Z" fill="white" stroke="#768094" stroke-linecap="round" stroke-linejoin="round"/>
<path d="M28.2979 226.555C28.2979 228.002 27.1233 229.173 25.6724 229.173C24.2214 229.173 23.0469 228.002 23.0469 226.555C23.0469 225.107 24.2214 223.936 25.6724 223.936C27.1233 223.936 28.2979 225.107 28.2979 226.555Z" fill="white" stroke="#768094" stroke-linecap="round" stroke-linejoin="round"/>
<path d="M28.2979 231.787C28.2979 233.234 27.1233 234.406 25.6724 234.406C24.2214 234.406 23.0469 233.234 23.0469 231.787C23.0469 230.34 24.2214 229.168 25.6724 229.168C27.1233 229.168 28.2979 230.34 28.2979 231.787Z" fill="white" stroke="#768094" stroke-linecap="round" stroke-linejoin="round"/>
<path d="M28.2979 237.019C28.2979 238.467 27.1233 239.638 25.6724 239.638C24.2214 239.638 23.0469 238.467 23.0469 237.019C23.0469 235.572 24.2214 234.401 25.6724 234.401C27.1233 234.401 28.2979 235.572 28.2979 237.019Z" fill="white" stroke="#768094" stroke-linecap="round" stroke-linejoin="round"/>
<path d="M28.2979 242.252C28.2979 243.699 27.1233 244.871 25.6724 244.871C24.2215 244.871 23.0469 243.699 23.0469 242.252C23.0469 240.805 24.2215 239.633 25.6724 239.633C27.1233 239.633 28.2979 240.805 28.2979 242.252Z" fill="white" stroke="#768094" stroke-linecap="round" stroke-linejoin="round"/>
<path d="M96.2276 195.16C96.2276 196.608 95.053 197.779 93.6021 197.779C92.1511 197.779 90.9766 196.608 90.9766 195.16C90.9766 193.713 92.1511 192.542 93.6021 192.542C95.053 192.542 96.2276 193.713 96.2276 195.16Z" fill="white" stroke="#768094" stroke-linecap="round" stroke-linejoin="round"/>
<path d="M96.2276 200.393C96.2276 201.84 95.053 203.012 93.6021 203.012C92.1511 203.012 90.9766 201.84 90.9766 200.393C90.9766 198.946 92.1511 197.774 93.6021 197.774C95.053 197.774 96.2276 198.946 96.2276 200.393Z" fill="white" stroke="#768094" stroke-linecap="round" stroke-linejoin="round"/>
<path d="M96.2276 205.625C96.2276 207.072 95.053 208.244 93.6021 208.244C92.1511 208.244 90.9766 207.072 90.9766 205.625C90.9766 204.178 92.1511 203.006 93.6021 203.006C95.053 203.006 96.2276 204.178 96.2276 205.625Z" fill="white" stroke="#768094" stroke-linecap="round" stroke-linejoin="round"/>
<path d="M96.2276 210.858C96.2276 212.305 95.053 213.476 93.6021 213.476C92.1511 213.476 90.9766 212.305 90.9766 210.858C90.9766 209.41 92.1511 208.239 93.6021 208.239C95.053 208.239 96.2276 209.41 96.2276 210.858Z" fill="white" stroke="#768094" stroke-linecap="round" stroke-linejoin="round"/>
<path d="M96.2276 216.09C96.2276 217.537 95.053 218.709 93.6021 218.709C92.1511 218.709 90.9766 217.537 90.9766 216.09C90.9766 214.643 92.1511 213.471 93.6021 213.471C95.053 213.471 96.2276 214.643 96.2276 216.09Z" fill="white" stroke="#768094" stroke-linecap="round" stroke-linejoin="round"/>
<path d="M96.2276 221.322C96.2276 222.769 95.053 223.941 93.6021 223.941C92.1511 223.941 90.9766 222.769 90.9766 221.322C90.9766 219.875 92.1511 218.703 93.6021 218.703C95.053 218.703 96.2276 219.875 96.2276 221.322Z" fill="white" stroke="#768094" stroke-linecap="round" stroke-linejoin="round"/>
<path d="M96.2276 226.555C96.2276 228.002 95.053 229.173 93.6021 229.173C92.1511 229.173 90.9766 228.002 90.9766 226.555C90.9766 225.107 92.1511 223.936 93.6021 223.936C95.053 223.936 96.2276 225.107 96.2276 226.555Z" fill="white" stroke="#768094" stroke-linecap="round" stroke-linejoin="round"/>
<path d="M96.2276 231.787C96.2276 233.234 95.053 234.406 93.6021 234.406C92.1511 234.406 90.9766 233.234 90.9766 231.787C90.9766 230.34 92.1511 229.168 93.6021 229.168C95.053 229.168 96.2276 230.34 96.2276 231.787Z" fill="white" stroke="#768094" stroke-linecap="round" stroke-linejoin="round"/>
<path d="M96.2276 237.02C96.2276 238.467 95.053 239.639 93.6021 239.639C92.1511 239.639 90.9766 238.467 90.9766 237.02C90.9766 235.572 92.1511 234.401 93.6021 234.401C95.053 234.401 96.2276 235.572 96.2276 237.02Z" fill="white" stroke="#768094" stroke-linecap="round" stroke-linejoin="round"/>
<path d="M96.2276 242.252C96.2276 243.699 95.053 244.871 93.6021 244.871C92.1511 244.871 90.9766 243.699 90.9766 242.252C90.9766 240.805 92.1511 239.633 93.6021 239.633C95.053 239.633 96.2276 240.805 96.2276 242.252Z" fill="white" stroke="#768094" stroke-linecap="round" stroke-linejoin="round"/>
<path d="M25.6719 197.776H69.8115" stroke="#768094" stroke-linecap="round" stroke-linejoin="round"/>
<path d="M25.6719 203.006H48.6797" stroke="#768094" stroke-linecap="round" stroke-linejoin="round"/>
<path d="M-5.19922 218.709H17.8086" stroke="#768094" stroke-linecap="round" stroke-linejoin="round"/>
<path d="M-5.19922 229.174H17.8086" stroke="#768094" stroke-linecap="round" stroke-linejoin="round"/>
<path d="M49.4609 213.471H93.6006" stroke="#768094" stroke-linecap="round" stroke-linejoin="round"/>
<path d="M73.2148 218.709H93.6025" stroke="#768094" stroke-linecap="round" stroke-linejoin="round"/>
<path d="M45.8281 210.864H37.0586V223.873H45.8281V210.864Z" fill="white" stroke="#768094" stroke-linecap="round" stroke-linejoin="round"/>
<path d="M39.8984 210.864V223.873" stroke="#768094" stroke-linecap="round" stroke-linejoin="round"/>
<path d="M42.9883 210.864V223.873" stroke="#768094" stroke-linecap="round" stroke-linejoin="round"/>
<path d="M37.4375 215.088H45.4523" stroke="#768094" stroke-linecap="round" stroke-linejoin="round"/>
<path d="M37.4375 219.643H45.4523" stroke="#768094" stroke-linecap="round" stroke-linejoin="round"/>
<path d="M150.756 204.317L175.555 215.089H55.1211V204.317H150.756Z" fill="white" stroke="#768094" stroke-linecap="round" stroke-linejoin="round"/>
<path d="M169.927 215.088H55.1211V231.787H169.927V215.088Z" fill="white" stroke="#768094" stroke-linecap="round" stroke-linejoin="round"/>
<path d="M62.6327 215.088H59.3906V231.984H62.6327V215.088Z" fill="white" stroke="#768094" stroke-linecap="round" stroke-linejoin="round"/>
<path d="M83.7069 215.088H80.4648V231.984H83.7069V215.088Z" fill="white" stroke="#768094" stroke-linecap="round" stroke-linejoin="round"/>
<path d="M104.785 215.088H101.543V231.984H104.785V215.088Z" fill="white" stroke="#768094" stroke-linecap="round" stroke-linejoin="round"/>
<path d="M125.859 215.088H122.617V231.984H125.859V215.088Z" fill="white" stroke="#768094" stroke-linecap="round" stroke-linejoin="round"/>
<path d="M146.93 215.088H143.688V231.984H146.93V215.088Z" fill="white" stroke="#768094" stroke-linecap="round" stroke-linejoin="round"/>
<path d="M168.012 215.088H164.77V231.984H168.012V215.088Z" fill="white" stroke="#768094" stroke-linecap="round" stroke-linejoin="round"/>
<path d="M62.889 235.717H59.1367V239.64H62.889V235.717Z" fill="white" stroke="#768094" stroke-linecap="round" stroke-linejoin="round"/>
<path d="M83.9593 235.717H80.207V239.64H83.9593V235.717Z" fill="white" stroke="#768094" stroke-linecap="round" stroke-linejoin="round"/>
<path d="M105.037 235.717H101.285V239.64H105.037V235.717Z" fill="white" stroke="#768094" stroke-linecap="round" stroke-linejoin="round"/>
<path d="M126.112 235.717H122.359V239.64H126.112V235.717Z" fill="white" stroke="#768094" stroke-linecap="round" stroke-linejoin="round"/>
<path d="M147.19 235.717H143.438V239.64H147.19V235.717Z" fill="white" stroke="#768094" stroke-linecap="round" stroke-linejoin="round"/>
<path d="M168.264 235.717H164.512V239.64H168.264V235.717Z" fill="white" stroke="#768094" stroke-linecap="round" stroke-linejoin="round"/>
<path d="M169.927 231.788H55.1211V235.711H169.927V231.788Z" fill="white" stroke="#768094" stroke-linecap="round" stroke-linejoin="round"/>
<path d="M169.927 226.555H55.1211V231.788H169.927V226.555Z" fill="white" stroke="#768094" stroke-linecap="round" stroke-linejoin="round"/>
<path d="M95.1758 167.176H150.764" stroke="#768094" stroke-linecap="round" stroke-linejoin="round"/>
<path d="M99.1055 200.395V197.776" stroke="#768094" stroke-linecap="round" stroke-linejoin="round"/>
<path d="M103.164 200.395V197.776" stroke="#768094" stroke-linecap="round" stroke-linejoin="round"/>
<path d="M107.223 200.395V197.776" stroke="#768094" stroke-linecap="round" stroke-linejoin="round"/>
<path d="M111.285 200.395V197.776" stroke="#768094" stroke-linecap="round" stroke-linejoin="round"/>
<path d="M115.344 200.395V197.776" stroke="#768094" stroke-linecap="round" stroke-linejoin="round"/>
<path d="M119.406 200.395V197.776" stroke="#768094" stroke-linecap="round" stroke-linejoin="round"/>
<path d="M123.469 200.395V197.776" stroke="#768094" stroke-linecap="round" stroke-linejoin="round"/>
<path d="M127.527 200.395V197.776" stroke="#768094" stroke-linecap="round" stroke-linejoin="round"/>
<path d="M131.586 200.395V197.776" stroke="#768094" stroke-linecap="round" stroke-linejoin="round"/>
<path d="M135.648 200.395V197.776" stroke="#768094" stroke-linecap="round" stroke-linejoin="round"/>
<path d="M139.707 200.393V197.774" stroke="#768094" stroke-linecap="round" stroke-linejoin="round"/>
<path d="M143.77 200.395V197.776" stroke="#768094" stroke-linecap="round" stroke-linejoin="round"/>
<path d="M147.832 200.395V197.776" stroke="#768094" stroke-linecap="round" stroke-linejoin="round"/>
<path d="M57.543 210.864V215.089" stroke="#768094" stroke-linecap="round" stroke-linejoin="round"/>
<path d="M61.0117 210.864V215.089" stroke="#768094" stroke-linecap="round" stroke-linejoin="round"/>
<path d="M64.4844 210.864V215.089" stroke="#768094" stroke-linecap="round" stroke-linejoin="round"/>
<path d="M67.9531 210.864V215.089" stroke="#768094" stroke-linecap="round" stroke-linejoin="round"/>
<path d="M71.4219 210.864V215.089" stroke="#768094" stroke-linecap="round" stroke-linejoin="round"/>
<path d="M74.8945 210.864V215.089" stroke="#768094" stroke-linecap="round" stroke-linejoin="round"/>
<path d="M78.3633 210.864V215.089" stroke="#768094" stroke-linecap="round" stroke-linejoin="round"/>
<path d="M81.8398 210.864V215.089" stroke="#768094" stroke-linecap="round" stroke-linejoin="round"/>
<path d="M85.3086 210.864V215.089" stroke="#768094" stroke-linecap="round" stroke-linejoin="round"/>
<path d="M88.7812 210.864V215.089" stroke="#768094" stroke-linecap="round" stroke-linejoin="round"/>
<path d="M92.25 210.864V215.089" stroke="#768094" stroke-linecap="round" stroke-linejoin="round"/>
<path d="M95.7227 210.864V215.089" stroke="#768094" stroke-linecap="round" stroke-linejoin="round"/>
<path d="M99.1953 210.864V215.089" stroke="#768094" stroke-linecap="round" stroke-linejoin="round"/>
<path d="M102.664 210.864V215.089" stroke="#768094" stroke-linecap="round" stroke-linejoin="round"/>
<path d="M106.141 210.864V215.089" stroke="#768094" stroke-linecap="round" stroke-linejoin="round"/>
<path d="M109.613 210.864V215.089" stroke="#768094" stroke-linecap="round" stroke-linejoin="round"/>
<path d="M113.082 210.864V215.089" stroke="#768094" stroke-linecap="round" stroke-linejoin="round"/>
<path d="M116.551 210.864V215.089" stroke="#768094" stroke-linecap="round" stroke-linejoin="round"/>
<path d="M120.023 210.864V215.089" stroke="#768094" stroke-linecap="round" stroke-linejoin="round"/>
<path d="M123.492 210.864V215.089" stroke="#768094" stroke-linecap="round" stroke-linejoin="round"/>
<path d="M126.961 210.864V215.089" stroke="#768094" stroke-linecap="round" stroke-linejoin="round"/>
<path d="M130.434 210.864V215.089" stroke="#768094" stroke-linecap="round" stroke-linejoin="round"/>
<path d="M133.91 210.864V215.089" stroke="#768094" stroke-linecap="round" stroke-linejoin="round"/>
<path d="M137.379 210.864V215.089" stroke="#768094" stroke-linecap="round" stroke-linejoin="round"/>
<path d="M140.852 210.864V215.089" stroke="#768094" stroke-linecap="round" stroke-linejoin="round"/>
<path d="M144.324 210.864V215.089" stroke="#768094" stroke-linecap="round" stroke-linejoin="round"/>
<path d="M147.793 210.864V215.089" stroke="#768094" stroke-linecap="round" stroke-linejoin="round"/>
<path d="M151.262 210.864V215.089" stroke="#768094" stroke-linecap="round" stroke-linejoin="round"/>
<path d="M154.734 210.864V215.089" stroke="#768094" stroke-linecap="round" stroke-linejoin="round"/>
<path d="M158.211 210.864V215.089" stroke="#768094" stroke-linecap="round" stroke-linejoin="round"/>
<path d="M161.68 210.864V215.089" stroke="#768094" stroke-linecap="round" stroke-linejoin="round"/>
<path d="M150.758 204.317H161.68L203.561 221.323L201.647 223.942L179.383 215.089H175.557L150.758 204.317Z" fill="white" stroke="#768094" stroke-linecap="round" stroke-linejoin="round"/>
</g>
<defs>
<clipPath id="clip0_205_72">
<rect y="0.00244141" width="508" height="247" rx="30" fill="white"/>
</clipPath>
<clipPath id="clip1_205_72">
<rect width="227.638" height="229.476" fill="white" transform="translate(280.363 17.5259)"/>
</clipPath>
</defs>
</svg>
